<svg id="Layer_1" data-name="Layer 1" xmlns="http://www.w3.org/2000/svg" viewBox="0 0 732.91 334.89">
  <defs>
    <style>
      .cls-1 {
        fill: #71bf44;
      }

      .cls-2 {
        fill: #fff;
      }
    </style>
  </defs>
  <g>
    <path class="cls-1" d="M305.24,238.66a46.14,46.14,0,1,1,46.13,46.13A46.26,46.26,0,0,1,305.24,238.66Zm4.62,79.84V297.92h82V318.5Zm16-79.84a25.55,25.55,0,1,0,25.54-25.55A25.44,25.44,0,0,0,325.83,238.66Z" transform="translate(-54.49 -130.19)"/>
    <path class="cls-1" d="M536.07,318.5V242.21L500.41,318.5H480.89l-38-77.89V318.5H422.17V194.12h21.11l47.19,96.7,45.25-96.7h21.11V318.5Z" transform="translate(-54.49 -130.19)"/>
    <path class="cls-1" d="M669.32,282.84c0,34.06-34.78,35.66-43.11,35.66H584.86V194.3h41.35s41.34-.89,41.34,34.95c0,16.33-10.12,24.67-20.76,27.33C670.21,261.37,669.32,282.84,669.32,282.84Zm-43.11-36.73s20.58,0,20.58-15.44c0-16.68-20.58-15.79-20.58-15.79H605.45v31.23Zm22.35,36.19c0-16.67-22.35-15.43-22.35-15.43H605.45v31.05h20.76C634.9,297.92,648.56,295.79,648.56,282.3Z" transform="translate(-54.49 -130.19)"/>
    <path class="cls-1" d="M688,238.66a46.13,46.13,0,1,1,46.13,46.13A46.26,46.26,0,0,1,688,238.66Zm4.61,79.84V297.92h82V318.5Zm16-79.84a25.55,25.55,0,1,0,25.55-25.55A25.45,25.45,0,0,0,708.53,238.66Z" transform="translate(-54.49 -130.19)"/>
  </g>
  <g>
    <path class="cls-2" d="M350.63,387.19a18.9,18.9,0,0,0-18.92-18.92,19.26,19.26,0,0,0-19,18.92V421a3,3,0,0,1-2.88,2.51H309a3.3,3.3,0,0,1-2-1.63.47.47,0,0,1-.12-.38.45.45,0,0,0-.13-.25v-56a2.95,2.95,0,1,1,5.89,0v5.89a24.9,24.9,0,0,1,44,16v33.32a3,3,0,0,1-6,0Z" transform="translate(-54.49 -130.19)"/>
    <path class="cls-2" d="M457.63,365.13v55.38a3,3,0,1,1-6,0v-9.14a28.69,28.69,0,0,1-23.06,12.15c-16.16,0-29.06-13.91-29.06-30.7s12.9-30.69,29.06-30.69a28.55,28.55,0,0,1,23.06,12v-9a3,3,0,0,1,6,0Zm-6,27.69c0-13.78-10.4-24.8-23.06-24.8s-23.05,11-23.05,24.8,10.53,24.69,23.05,24.69S451.62,406.61,451.62,392.82Z" transform="translate(-54.49 -130.19)"/>
    <path class="cls-2" d="M527.67,365.13a3.23,3.23,0,0,1-3,3h-7.89v44.73c0,3,3,4.51,4.51,4.51a3.48,3.48,0,0,1,3.13,3.13,3.35,3.35,0,0,1-3.13,3,10.44,10.44,0,0,1-10.78-10.65V368.14h-7.64c-3,0-3-1.5-3-3s0-3,3-3h7.64v-22.8a3.24,3.24,0,0,1,3-3,3.38,3.38,0,0,1,3.26,3v22.8h7.89A3.23,3.23,0,0,1,527.67,365.13Z" transform="translate(-54.49 -130.19)"/>
    <path class="cls-2" d="M579,345.09a3.07,3.07,0,0,1,6.14,0V348a3.08,3.08,0,1,1-6.14,0Zm0,20a3.07,3.07,0,0,1,6.14,0v55.38a3.07,3.07,0,0,1-6.14,0Z" transform="translate(-54.49 -130.19)"/>
    <path class="cls-2" d="M662.86,362.13c16.16,0,29.07,14,29.07,30.69s-12.91,30.7-29.07,30.7-29.07-14-29.07-30.7S646.82,362.13,662.86,362.13Zm0,55.38c12.53,0,23-11,23-24.69s-10.52-24.8-23-24.8-23.06,11.15-23.06,24.8S650.33,417.51,662.86,417.51Z" transform="translate(-54.49 -130.19)"/>
    <path class="cls-2" d="M781.38,387.19a18.9,18.9,0,0,0-18.91-18.92,19.26,19.26,0,0,0-19.05,18.92V421a3,3,0,0,1-2.88,2.51h-.75a3.3,3.3,0,0,1-2-1.63.47.47,0,0,1-.12-.38.45.45,0,0,0-.13-.25v-56a3,3,0,0,1,3-3,2.94,2.94,0,0,1,2.88,3v5.89a24.9,24.9,0,0,1,44,16v33.32a3,3,0,1,1-6,0Z" transform="translate(-54.49 -130.19)"/>
  </g>
  <path class="cls-1" d="M142.52,325.39H110.47V465.08h-56V269.89H107.6L54.49,186.17v-56H166s112,0,112,97.6c0,59.32-41.14,82.76-73.68,91.85l90.9,145.44H229.59Zm79.41-97.6c0-41.62-56-41.62-56-41.62H121l52.15,83.24C188,268,221.93,260.8,221.93,227.79Z" transform="translate(-54.49 -130.19)"/>
</svg>
