<?xml version="1.0" encoding="utf-8"?>
<!-- Generator: Adobe Illustrator 25.0.0, SVG Export Plug-In . SVG Version: 6.00 Build 0)  -->
<svg version="1.1" id="Layer_1" xmlns="http://www.w3.org/2000/svg" xmlns:xlink="http://www.w3.org/1999/xlink" x="0px" y="0px"
	 viewBox="0 0 678.5 252.2" style="enable-background:new 0 0 678.5 252.2;" xml:space="preserve">
<style type="text/css">
	.st0{fill:#455BA9;}
	.st1{fill:#FFFFFF;}
	.st2{fill:#FDFEFE;}
	.st3{fill:#ED2024;}
</style>
<g>
	<circle class="st0" cx="126.1" cy="126.1" r="126.1"/>
	<path class="st1" d="M214.5,201.8v0.1c0,6.1-4.9,11.1-11,11.1c0,0,0,0,0,0H55c-6.1,0-11-4.9-11.1-11v-96.7c0-2.2,1.8-3.9,3.9-3.9
		c0,0,0,0,0,0l0,0c2.2,0,3.9,1.8,3.9,3.9v86.1c0,6.1,4.9,11,10.9,11c0,0,0,0,0.1,0h132.8c6.1,0,11-4.9,11-11v-56.1
		c-12.6-0.6-14.2-3.1-14.5-3.9c-2.1-5.1,19.8-13.5,21.9-14.3c0.1,14.7,0.2,29.5,0.3,44.2"/>
	<path class="st1" d="M47.9,83.4V68.6c0-3.8,3.1-6.9,6.9-6.9l0,0c3.8,0,6.9,3.1,6.9,6.8c0,0,0,0,0,0v4.6l3.9-2.9v-5.4
		c0-3.8-3.1-6.9-6.9-6.9h-7.8C47,58,44,61,43.9,64.8v21.4L47.9,83.4z"/>
	<polygon class="st1" points="5.4,114.8 140.2,37 245.2,131.2 138.1,59.6 	"/>
	<circle class="st2" cx="129.2" cy="142.5" r="41.1"/>
	<g>
		<path class="st3" d="M129.2,109.2L129.2,109.2c4.9,0,8.8,3.9,8.8,8.8V167c0,4.9-3.9,8.8-8.8,8.8l0,0c-4.9,0-8.8-3.9-8.8-8.8v-48.9
			C120.4,113.2,124.4,109.2,129.2,109.2z"/>
		<path class="st3" d="M104.8,133.7h48.9c4.9,0,8.8,3.9,8.8,8.8l0,0c0,4.9-3.9,8.8-8.8,8.8h-48.9c-4.9,0-8.8-3.9-8.8-8.8l0,0
			C96,137.7,99.9,133.7,104.8,133.7z"/>
	</g>
</g>
<g>
	<path class="st0" d="M340.6,112.4c-7.3,0-13.6-1.5-18.9-4.5c-5.2-2.9-9.4-7.3-12.1-12.6c-2.9-6-4.4-12.6-4.2-19.3
		c0-7.4,1.4-13.8,4.2-19.3c2.7-5.3,6.9-9.7,12.1-12.6c5.2-3,11.5-4.5,18.9-4.5c3.7,0,7.3,0.5,10.8,1.4c3.3,0.8,6.4,2.2,9.3,4
		c1.5,0.9,2.7,2.3,3.1,4.1c0.4,1.5,0.1,3-0.6,4.3c-0.7,1.3-1.9,2.2-3.3,2.6c-1.5,0.4-3.1,0-4.9-1.1c-2.1-1.3-4.3-2.3-6.7-2.9
		c-2.4-0.6-4.9-0.9-7.3-0.9c-7.2,0-12.6,2.2-16.3,6.5s-5.6,10.4-5.6,18.4c0,7.9,1.9,14.1,5.6,18.5s9.2,6.5,16.3,6.5
		c2.5,0,5.1-0.3,7.5-1c2.5-0.6,4.8-1.7,7-3c1.8-1.1,3.4-1.5,4.8-1.1c1.3,0.4,2.5,1.2,3.2,2.5c0.7,1.2,0.9,2.7,0.6,4.1
		c-0.4,1.6-1.3,3-2.7,3.9c-2.9,2-6.1,3.6-9.6,4.5C348.2,111.9,344.5,112.4,340.6,112.4z"/>
	<path class="st0" d="M391.5,112.4c-11.2,0-16.8-6.3-16.8-18.8V46.3c0-4.2,2.1-6.3,6.2-6.3s6.2,2.1,6.3,6.3v46.8c0,6,2.5,9,7.5,9
		c0.5,0,1,0,1.5,0s0.9-0.1,1.4-0.1c0.7-0.2,1.5,0.1,1.9,0.8c0.4,1.2,0.6,2.6,0.5,3.9c0.1,1.4-0.3,2.7-1,3.9c-0.8,1-2,1.6-3.3,1.7
		C394.4,112.3,392.9,112.4,391.5,112.4z"/>
	<path class="st0" d="M412.9,52.4c-2,0.1-3.9-0.5-5.5-1.8c-2.6-2.7-2.6-7,0-9.8c1.6-1.2,3.5-1.8,5.5-1.7c5,0,7.4,2.2,7.4,6.6
		C420.4,50.2,417.9,52.4,412.9,52.4z M412.9,112.1c-1.7,0.1-3.4-0.6-4.6-1.8c-1.1-1.4-1.7-3.2-1.6-5V68.5c0-4.5,2.1-6.8,6.2-6.8
		s6.2,2.3,6.3,6.8v36.8c0.1,1.8-0.5,3.6-1.6,5C416.4,111.6,414.7,112.3,412.9,112.1z"/>
	<path class="st0" d="M438.5,112.2c-4.1,0-6.2-2.1-6.2-6.4V67.9c0-4.2,2-6.3,6.1-6.3c4.1,0,6.1,2.1,6.1,6.3V70
		c1.6-2.7,3.9-5,6.8-6.4c3-1.5,6.2-2.3,9.6-2.2c11.6,0,17.4,6.7,17.3,20.1v24.3c0,4.3-2.1,6.4-6.2,6.4s-6.3-2.1-6.3-6.4V82.1
		c0-3.8-0.7-6.6-2.2-8.3s-3.7-2.6-6.7-2.6c-3.3-0.2-6.5,1.1-8.8,3.5c-2.3,2.5-3.4,5.8-3.3,9.2v22
		C444.8,110.1,442.7,112.2,438.5,112.2z"/>
	<path class="st0" d="M497.2,52.4c-2,0.1-3.9-0.5-5.5-1.8c-2.6-2.7-2.6-7,0-9.8c1.6-1.2,3.5-1.8,5.5-1.7c5,0,7.4,2.2,7.4,6.6
		C504.6,50.2,502.1,52.4,497.2,52.4z M497.2,112.1c-1.7,0.1-3.4-0.6-4.6-1.8c-1.1-1.4-1.7-3.2-1.6-5V68.5c0-4.5,2.1-6.8,6.2-6.8
		c4.1,0,6.3,2.3,6.3,6.8v36.8c0.1,1.8-0.5,3.6-1.6,5C500.7,111.6,498.9,112.3,497.2,112.1z"/>
	<path class="st0" d="M539.2,112.4c-4.7,0.1-9.3-1-13.4-3.2c-3.8-2.1-6.8-5.2-8.8-9c-2.2-4.2-3.2-8.9-3.1-13.6
		c-0.1-4.7,0.9-9.3,3.1-13.5c2-3.7,5.1-6.8,8.8-8.7c4.2-2.1,8.8-3.1,13.4-3c2.4,0,4.8,0.3,7.2,0.9c2.6,0.6,5,1.6,7.3,3
		c1.2,0.6,2.1,1.8,2.4,3.1c0.2,1.2,0.1,2.4-0.5,3.5c-0.5,1-1.4,1.9-2.5,2.3c-1.3,0.5-2.7,0.3-3.8-0.5c-2.7-1.6-5.8-2.5-8.9-2.6
		c-4.3,0-7.7,1.4-10.1,4.1c-2.4,2.7-3.6,6.6-3.6,11.6c0,4.9,1.2,8.8,3.6,11.7s5.7,4.3,10.1,4.3c3.1-0.1,6.2-0.9,8.9-2.5
		c1.1-0.8,2.5-1,3.7-0.5c1.1,0.4,1.9,1.3,2.3,2.4c0.5,1.1,0.6,2.3,0.3,3.5c-0.3,1.3-1.2,2.4-2.3,3.1c-2.2,1.3-4.5,2.3-7,2.9
		C543.9,112.1,541.6,112.4,539.2,112.4z"/>
	<path class="st0" d="M607.2,112.4c-3.3,0.1-6.5-0.6-9.5-2.1c-2.6-1.2-4.9-3.2-6.5-5.6c-1.6-2.3-2.4-5.1-2.4-7.9
		c0-3.6,0.9-6.5,2.8-8.6s4.9-3.6,9.1-4.6c5.6-1.1,11.3-1.5,16.9-1.4h3.5v-2.1c0-3.3-0.7-5.7-2.2-7.2c-1.5-1.5-4-2.2-7.4-2.2
		c-2.1,0-4.2,0.3-6.3,0.7c-2.4,0.5-4.8,1.3-7.1,2.4c-1.2,0.7-2.7,0.8-4,0.2c-1.1-0.6-1.9-1.6-2.2-2.7c-0.4-1.2-0.3-2.6,0.2-3.8
		c0.6-1.3,1.7-2.3,3.1-2.8c2.9-1.2,5.8-2.1,8.9-2.7c2.6-0.5,5.2-0.8,7.8-0.8c7.2,0,12.5,1.7,15.9,5s5.2,8.5,5.2,15.4v24.1
		c0,4.3-1.9,6.4-5.8,6.4s-5.9-2.1-6-6.4v-2.2c-1.1,2.7-3,4.9-5.4,6.5C613.3,111.7,610.3,112.5,607.2,112.4z M609.8,103.8
		c3.1,0.1,6.1-1.2,8.2-3.4c2.2-2.3,3.4-5.4,3.3-8.6v-2.2h-3.4c-6.3,0-10.6,0.5-13.1,1.5c-2.3,0.7-3.8,2.9-3.7,5.3
		c-0.1,2.1,0.8,4,2.3,5.4C605.1,103.2,607.4,104,609.8,103.8L609.8,103.8z"/>
	<path class="st0" d="M668.4,112.4c-13,0-19.5-6.4-19.5-19.3V71.8h-5.2c-3.3,0-5-1.6-5-4.7c0-3.1,1.7-4.7,5-4.7h5.2v-9.1
		c0-4.2,2.1-6.3,6.3-6.3c4.2,0,6.3,2.1,6.2,6.3v9.2h10.6c3.3,0,5,1.6,5,4.7c0,3.1-1.7,4.7-5,4.7h-10.7v20.6c0,3.2,0.7,5.6,2.1,7.2
		c1.4,1.6,3.7,2.4,6.8,2.4c1,0,2-0.1,3-0.3c0.8-0.2,1.5-0.3,2.3-0.4c0.7-0.1,1.5,0.2,2,0.8c0.5,0.6,0.8,1.7,0.8,3.5
		c0,1.2-0.2,2.4-0.7,3.6c-0.4,1-1.3,1.8-2.4,2.1c-1.1,0.3-2.3,0.6-3.4,0.8C670.8,112.3,669.6,112.4,668.4,112.4z"/>
</g>
<path class="st1" d="M465.4,149.1h182c17.1,0,31,13.9,31,31v3.1c0,17.1-13.9,31-31,31h-182c-17.1,0-31-13.9-31-31v-3.1
	C434.4,162.9,448.3,149.1,465.4,149.1z"/>
<g>
	<path class="st3" d="M475.1,202.2c-2.9,0-4.3-1.5-4.3-4.5v-41.5c0-2.9,1.4-4.4,4.3-4.4s4.4,1.5,4.4,4.4v16.2
		c1.1-1.8,2.7-3.3,4.7-4.2c2-1,4.3-1.5,6.5-1.4c8.1,0,12.1,4.7,12.1,14.1v16.9c0,3-1.4,4.5-4.3,4.5s-4.4-1.5-4.4-4.5v-16.5
		c0-2.7-0.5-4.6-1.5-5.8c-1.2-1.3-2.9-2-4.7-1.8c-2.3-0.1-4.5,0.8-6.1,2.4c-1.6,1.8-2.4,4.1-2.3,6.4v15.3
		C479.5,200.7,478.1,202.2,475.1,202.2z"/>
	<path class="st3" d="M527.3,202.4c-3.2,0.1-6.4-0.7-9.2-2.2c-2.6-1.4-4.7-3.6-6.1-6.2c-1.5-2.9-2.2-6.2-2.2-9.5
		c-0.1-3.3,0.7-6.5,2.2-9.4c1.4-2.6,3.5-4.7,6.1-6.2c5.8-2.9,12.6-2.9,18.5,0c2.6,1.4,4.7,3.6,6.1,6.2c1.5,2.9,2.2,6.2,2.2,9.4
		c0.1,3.3-0.7,6.5-2.2,9.5c-1.4,2.6-3.5,4.8-6.1,6.2C533.7,201.7,530.5,202.5,527.3,202.4z M527.3,195.7c2.4,0.1,4.8-1,6.3-2.8
		c1.6-1.9,2.4-4.7,2.4-8.4s-0.8-6.5-2.4-8.4c-3.2-3.5-8.6-3.7-12.1-0.5c-0.2,0.2-0.3,0.3-0.5,0.5c-1.6,1.8-2.4,4.6-2.4,8.4
		s0.8,6.5,2.4,8.4C522.5,194.8,524.9,195.8,527.3,195.7z"/>
	<path class="st3" d="M556.4,202.2c-2.9,0-4.3-1.5-4.3-4.5v-26.4c0-2.9,1.4-4.4,4.3-4.4s4.3,1.5,4.3,4.4v1.4c1-1.8,2.5-3.3,4.3-4.4
		c1.9-1.1,4.1-1.6,6.3-1.6c5.1,0,8.5,2.2,10.1,6.7c1-2.1,2.6-3.8,4.6-4.9c2.1-1.2,4.4-1.8,6.8-1.8c7.7,0,11.5,4.7,11.5,14.1v16.9
		c0,3-1.5,4.5-4.4,4.5s-4.3-1.5-4.3-4.5v-16.6c0-2.6-0.4-4.5-1.3-5.7s-2.3-1.8-4.4-1.8c-2.1-0.1-4.1,0.8-5.4,2.4
		c-1.4,1.9-2.1,4.3-2,6.7v15c0,3-1.4,4.5-4.3,4.5c-2.9,0-4.4-1.5-4.4-4.5v-16.5c0-2.6-0.4-4.5-1.3-5.7c-1-1.3-2.7-2-4.3-1.8
		c-2.1-0.1-4.1,0.8-5.4,2.4c-1.4,1.9-2.1,4.3-2,6.7v15C560.8,200.7,559.4,202.2,556.4,202.2z"/>
	<path class="st3" d="M630.1,202.4c-3.5,0.1-6.9-0.6-10-2.2c-2.7-1.4-5-3.5-6.5-6.2c-3-5.9-3-12.8-0.1-18.7c1.4-2.6,3.5-4.8,6.1-6.3
		c2.7-1.5,5.7-2.3,8.8-2.3c4.8,0,8.7,1.5,11.5,4.6c2.8,3.1,4.2,7.3,4.2,12.6c0,1.7-1.1,2.6-3.4,2.6h-21.1c0.7,6.1,4.2,9.2,10.5,9.2
		c1.4,0,2.7-0.2,4.1-0.5c1.5-0.3,3-0.8,4.3-1.6c0.9-0.6,2-0.9,3.1-0.7c0.8,0.2,1.4,0.8,1.8,1.5c0.4,0.8,0.4,1.7,0.1,2.5
		c-0.3,1-1.1,1.8-2,2.3c-1.7,1.1-3.6,1.8-5.6,2.3C634.1,202.1,632.1,202.4,630.1,202.4z M628.9,172.7c-2.3-0.1-4.6,0.8-6.2,2.4
		c-1.7,1.8-2.7,4-2.9,6.4H637c0-2.4-0.8-4.7-2.3-6.5C633.1,173.4,631,172.6,628.9,172.7L628.9,172.7z"/>
</g>
</svg>
