<?xml version="1.0" encoding="utf-8"?>
<!-- Generator: Adobe Illustrator 25.0.0, SVG Export Plug-In . SVG Version: 6.00 Build 0)  -->
<svg version="1.1" id="Capa_1" xmlns="http://www.w3.org/2000/svg" xmlns:xlink="http://www.w3.org/1999/xlink" x="0px" y="0px"
	 viewBox="0 0 512 512" style="enable-background:new 0 0 512 512;" xml:space="preserve">
<style type="text/css">
	.st0{fill:#5F6E9B;}
	.st1{fill:#414B82;}
	.st2{fill:#FFB69E;}
	.st3{fill:#64AFFF;}
	.st4{fill:#80391B;}
	.st5{fill:#FF4619;}
	.st6{fill:#343E6B;}
	.st7{fill:#252D5C;}
	.st8{fill:#1B224A;}
	.st9{fill:none;stroke:#29FF47;stroke-width:39;stroke-miterlimit:10;}
</style>
<g>
	<path class="st0" d="M320.8,240.7v92c0,6,4.9,10.8,10.8,10.8s10.8-4.9,10.8-10.8v-92H320.8z"/>
	<path class="st1" d="M347,240.7v92c0,6,4.9,10.8,10.8,10.8c6,0,10.8-4.9,10.8-10.8v-92H347z"/>
	<g>
		<circle class="st2" cx="344.7" cy="134.7" r="18.7"/>
		<path class="st2" d="M390.7,180.7c-0.1-11.1-9.1-21.3-22.5-21.3c-8.4,0-47.6,0-47.6,0l0,0c-12.5,0-21.9,10-22,21.3v12.4l0,0v54
			c0,5,4,9.1,9,9.1h0c5,0,9-4,9-9c0-7.1,0-58.2,0-66.4c0-1.8,1.8-3.3,3.6-3.3h0.5V246h47.9l0-68.5c0,0,1.1-0.1,2.2,0.6
			c1.1,0.7,1.7,1.8,1.7,2.7c0,8.2,0,59.2,0,66.4c0,5,4.1,9,9,9h0c5,0,9-4.1,9-9.1L390.7,180.7z"/>
	</g>
	<path class="st3" d="M368.2,159.4h-13.7c0,0,0,0,0,0c0.2,5.4-4.8,10-10,10c-5.6,0-9.8-4.6-10-10c0,0,0,0,0,0c-7.9,0-13.9,0-13.9,0
		c-12.5,0-21.9,10-22,21.3v12.4l0,0v5.4h18.1v-17.6c0-1.8,1.8-3.3,3.6-3.3h0.5V246h47.9l0-68.5c0,0,1.1-0.1,2.2,0.6
		c1.1,0.7,1.7,1.8,1.7,2.7v17.6h18.1v-17.7C390.7,169.6,381.6,159.4,368.2,159.4z"/>
	<path class="st0" d="M239,254.7v102.4c0,6.7,5.4,12.1,12.1,12.1c6.7,0,12.1-5.4,12.1-12.1V254.7H239z"/>
	<path class="st1" d="M268.1,254.7v102.4c0,6.7,5.4,12.1,12.1,12.1c6.7,0,12.1-5.4,12.1-12.1V254.7H268.1z"/>
	<g>
		<circle class="st4" cx="265.5" cy="136.8" r="20.8"/>
		<path class="st4" d="M316.8,188c-0.1-12.4-10.1-23.7-25.1-23.7c-9.3,0-52.9,0-52.9,0l0,0c-13.9,0-24.4,11.1-24.4,23.7v13.8l0,0
			v60.1c0,5.6,4.5,10.1,10,10.1h0.1c5.5,0,10-4.5,10.1-10c0-7.9,0-64.7,0-73.9c0-2,2-3.7,4.1-3.7h0.5v76.3h53.3l0-76.3
			c0,0,1.2-0.2,2.5,0.6c1.2,0.8,1.9,2,1.9,3c0,9.1,0,65.8,0,73.9c0,5.5,4.5,10,10.1,10h0.1c5.6,0,10-4.6,10-10.1L316.8,188z"/>
	</g>
	<path class="st5" d="M291.7,164.3h-15.2c0,0,0,0,0,0c0.3,6-5.3,11.1-11.1,11.1c-6.2,0-10.9-5.1-11.1-11.1c0,0,0,0,0,0
		c-8.7,0-15.5,0-15.5,0c-13.9,0-24.4,11.1-24.4,23.7v13.8l0,0v6h20.1v-19.6c0-2,2-3.7,4.1-3.7h0.5v76.3h53.3l0-76.3
		c0,0,1.2-0.2,2.5,0.6c1.2,0.8,1.9,2,1.9,3v19.6h20.1V188C316.7,175.6,306.7,164.3,291.7,164.3z"/>
	<path class="st2" d="M234.5,195.4c-0.1-14.4-12.1-26.2-26.7-26.2H148c-14.7,0-26.7,11.7-26.7,26.2c0,0,0,0,0,0.1v81.7
		c0,6.1,5,11.1,11.1,11.1s11.1-5,11.1-11.1v-81.7c0-2.1,2.2-4,4.5-4h0.4V276h58.9v-84.6h0.4c2.3,0,4.5,1.9,4.5,4v81.7
		c0,6.1,5,11.1,11.1,11.1s11.1-5,11.1-11.1L234.5,195.4C234.5,195.4,234.5,195.4,234.5,195.4z"/>
	<path class="st6" d="M194,396c-7.4,0-13.3-6-13.3-13.3V276c0-7.4,6-13.3,13.3-13.3c7.4,0,13.3,6,13.3,13.3v106.7
		C207.3,390,201.4,396,194,396z"/>
	<path class="st1" d="M161.8,396c-7.4,0-13.3-6-13.3-13.3V276c0-7.4,6-13.3,13.3-13.3s13.3,6,13.3,13.3v106.7
		C175.1,390,169.1,396,161.8,396z"/>
	<path class="st7" d="M234.5,195.4c-0.1-14.4-12.1-26.2-26.7-26.2H189c-0.1,5.8-5.5,10.6-11.2,10.6c-6.1,0-10.6-4.8-11.1-10.6H148
		c-14.7,0-26.7,11.7-26.7,26.2c0,0,0,0,0,0.1v81.7c0,6.1,5,11.1,11.1,11.1s11.1-5,11.1-11.1v-81.7c0-2.1,2.2-4,4.5-4h0.4V276h58.9
		v-84.6h0.4c2.3,0,4.5,1.9,4.5,4v81.7c0,6.1,5,11.1,11.1,11.1s11.1-5,11.1-11.1L234.5,195.4C234.5,195.4,234.5,195.4,234.5,195.4z"
		/>
	<path class="st8" d="M234.5,195.4c-0.1-14.4-12.1-26.2-26.7-26.2H189c-0.1,5.8-5.5,10.6-11.2,10.6V276h29.5v-84.6h0.4
		c2.3,0,4.5,1.9,4.5,4v81.7c0,6.1,5,11.1,11.1,11.1s11.1-5,11.1-11.1L234.5,195.4C234.5,195.4,234.5,195.4,234.5,195.4z"/>
	<g>
		<path class="st2" d="M121.3,276.8v0.3c0,6.1,5,11.1,11.1,11.1s11.1-5,11.1-11.1v-0.3H121.3z"/>
		<path class="st2" d="M212.2,276.8v0.3c0,6.1,5,11.1,11.1,11.1c6.1,0,11.1-5,11.1-11.1v-0.3H212.2z"/>
		<circle class="st2" cx="177.9" cy="139" r="23"/>
	</g>
</g>
<g>
	<circle class="st9" cx="256" cy="256" r="230"/>
	<line class="st9" x1="93" y1="91.7" x2="419" y2="417.8"/>
</g>
</svg>
