<svg id="Layer_1" data-name="Layer 1" xmlns="http://www.w3.org/2000/svg" viewBox="0 0 928.08 835.16">
  <defs>
    <style>
      .cls-1 {
        fill: #8c8f8c;
      }

      .cls-2 {
        fill: #f3cce0;
      }

      .cls-3 {
        fill: #fff;
      }

      .cls-4 {
        fill: #abafab;
      }

      .cls-5 {
        fill: #616462;
      }
    </style>
  </defs>
  <path class="cls-1" d="M438.61,600.14a5.47,5.47,0,0,1,6.5,2.29c5.93,9.81,35.21,59.63,28.78,76.58-5.59,14.74-17.44,29.92-17.94,30.56a5.49,5.49,0,0,1-7.6,1,5.27,5.27,0,0,1-1-7.47c.12-.14,11.37-14.56,16.37-27.78,3.06-8-12.12-41.27-27.94-67.43a5.3,5.3,0,0,1,2.83-7.72Z" transform="translate(-43.64 -89.33)"/>
  <path class="cls-1" d="M264.63,686.6a5.32,5.32,0,0,0-3.52,5.84c1.81,11.27,11.65,68,27.62,77,13.89,7.86,32.88,12.13,33.68,12.31a5.42,5.42,0,0,0,6.49-4,5.32,5.32,0,0,0-4.09-6.36c-.18,0-18.21-4.11-30.67-11.15-7.58-4.29-17.48-39.38-22.31-69.43a5.43,5.43,0,0,0-6.2-4.43A6.36,6.36,0,0,0,264.63,686.6Z" transform="translate(-43.64 -89.33)"/>
  <g>
    <path class="cls-2" d="M843.8,878.54q.09,23,.19,46H144.61V410.13h32.23V881.27H811.76V549.16c-51.47-2.42-58.09-12.64-59.41-15.91-8.46-21.06,81.33-55.55,89.87-58.78l1,181.26" transform="translate(-43.64 -89.33)"/>
    <path class="cls-2" d="M414.59,744.27c-6.69-5.36,1.62-24.58,12.67-37.85s17.6-11.88,24.29-6.51,11,12.67-.07,25.94S421.28,749.64,414.59,744.27Z" transform="translate(-43.64 -89.33)"/>
    <path class="cls-2" d="M355.83,775.26C357.5,767,338.6,757.34,321.46,754s-21.27,1.87-22.93,10.19-.23,16.64,16.91,19.94S354.16,783.58,355.83,775.26Z" transform="translate(-43.64 -89.33)"/>
    <polygon class="cls-2" points="116.61 277.37 116.61 188.67 172.94 188.67 172.94 235.58 189.04 223.64 189.04 173.31 100.51 173.31 100.51 289.31 116.61 277.37"/>
  </g>
  <g>
    <path class="cls-3" d="M497,153.74,971.72,594.8h0L497,89.33h0L43.64,484.15Z" transform="translate(-43.64 -89.33)"/>
    <path class="cls-3" d="M154.87,428.66c-8.93-11.87-4.44-28.22,10.07-36.53l11.67-6.68c14.5-8.31,33.49-5.42,42.44,6.45l39.55,52.52c8.94,11.87,4.44,28.22-10.06,36.53l-11.67,6.68c-14.5,8.3-33.5,5.42-42.44-6.45Z" transform="translate(-43.64 -89.33)"/>
    <path class="cls-3" d="M219.91,462.87c.7-.45,1.41-.88,2.13-1.3C259.63,439.74,311.69,458,376.79,516c45.17,40.18,80.43,85,81.91,86.86a15.45,15.45,0,0,1-2.89,22,16.41,16.41,0,0,1-22.59-3.09c-.36-.45-35.18-44.66-78.23-82.91-51.66-45.88-92.94-63.7-116.24-50.17-.3.17-.61.36-.89.54C195.9,516,253.78,651.84,288.68,714a15.44,15.44,0,0,1-6.29,21.31,16.43,16.43,0,0,1-21.9-6.41c-1.2-2.14-29.72-53.1-49.87-110.13C181.91,537.48,185,485.07,219.91,462.87Z" transform="translate(-43.64 -89.33)"/>
    <path class="cls-3" d="M783.44,469.54c17.27-16.78,45-16,61.88,1.68l13.6,14.25c16.91,17.7,16.59,45.66-.68,62.44l-76.5,74.29c-17.27,16.78-45,16-61.89-1.67l-13.6-14.26c-16.9-17.71-16.59-45.65.69-62.44Z" transform="translate(-43.64 -89.33)"/>
  </g>
  <path class="cls-4" d="M765.1,666.38c9,63.66-37.72,122.26-104.46,130.9s-128.19-36-137.24-99.64,37.72-122.26,104.46-130.89S756.05,602.72,765.1,666.38Z" transform="translate(-43.64 -89.33)"/>
  <path class="cls-1" d="M734.22,670.23c6.38,44.86-26.57,86.14-73.59,92.23s-90.32-25.34-96.7-70.2,26.58-86.15,73.6-92.23S727.84,625.38,734.22,670.23Z" transform="translate(-43.64 -89.33)"/>
  <path class="cls-5" d="M688.43,676.5c3.19,22.43-13.29,43.08-36.8,46.12s-45.15-12.68-48.34-35.1,13.29-43.07,36.8-46.11S685.24,654.08,688.43,676.5Z" transform="translate(-43.64 -89.33)"/>
</svg>
