<svg id="Layer_1" data-name="Layer 1" xmlns="http://www.w3.org/2000/svg" viewBox="0 0 942.85 692.23">
  <defs>
    <style>
      .cls-1 {
        fill: #fff;
      }

      .cls-2 {
        fill: #fdfefe;
      }

      .cls-3 {
        fill: #ed2024;
      }
    </style>
  </defs>
  <path class="cls-1" d="M850.63,802v.44a43.46,43.46,0,0,1-43.46,43.63H223.42A43.45,43.45,0,0,1,180,802.66V422.56a15.46,15.46,0,0,1,15.45-15.46h0a15.46,15.46,0,0,1,15.46,15.46V761.2a43.45,43.45,0,0,0,43.46,43.45H776.43a43.45,43.45,0,0,0,43.46-43.45V540.45c-49.37-2.31-55.72-12.12-57-15.26-8.12-20.2,78-53.28,86.19-56.38l1,173.87" transform="translate(-28.58 -153.89)"/>
  <path class="cls-1" d="M195.4,336.18V278.11a27,27,0,0,1,27-27h0a27,27,0,0,1,27,27v18l15.44-11.45V263.39a27,27,0,0,0-27-27H207a27,27,0,0,0-27,27v84.24Z" transform="translate(-28.58 -153.89)"/>
  <polygon class="cls-1" points="0 305.95 530.04 0 942.85 370.49 521.65 88.7 0 305.95"/>
  <circle class="cls-2" cx="486.72" cy="414.91" r="161.7"/>
  <g>
    <rect class="cls-3" x="452.09" y="284.1" width="69.27" height="261.62" rx="34.63"/>
    <rect class="cls-3" x="355.91" y="380.28" width="261.62" height="69.27" rx="34.63"/>
  </g>
</svg>
