<svg id="Layer_1" data-name="Layer 1" xmlns="http://www.w3.org/2000/svg" viewBox="0 0 991.6 991.6">
  <defs>
    <style>
      .cls-1 {
        fill: #455ba9;
      }

      .cls-2 {
        fill: #fff;
      }

      .cls-3 {
        fill: #fdfefe;
      }

      .cls-4 {
        fill: #ed2024;
      }
    </style>
  </defs>
  <circle class="cls-1" cx="495.8" cy="495.8" r="495.8"/>
  <path class="cls-2" d="M850.63,802v.44a43.46,43.46,0,0,1-43.46,43.63H223.42A43.45,43.45,0,0,1,180,802.66V422.56a15.46,15.46,0,0,1,15.45-15.46h0a15.46,15.46,0,0,1,15.46,15.46V761.2a43.45,43.45,0,0,0,43.46,43.45H776.43a43.45,43.45,0,0,0,43.46-43.45V540.45c-49.37-2.31-55.72-12.12-57-15.26-8.12-20.2,78-53.28,86.19-56.38l1,173.87" transform="translate(-7.13 -8.4)"/>
  <path class="cls-2" d="M195.4,336.18V278.11a27,27,0,0,1,27-27h0a27,27,0,0,1,27,27v18l15.44-11.45V263.39a27,27,0,0,0-27-27H207a27,27,0,0,0-27,27v84.24Z" transform="translate(-7.13 -8.4)"/>
  <polygon class="cls-2" points="21.45 451.44 551.48 145.48 964.29 515.97 543.1 234.18 21.45 451.44"/>
  <circle class="cls-3" cx="508.17" cy="560.39" r="161.7"/>
  <g>
    <rect class="cls-4" x="473.53" y="429.59" width="69.27" height="261.62" rx="34.63"/>
    <rect class="cls-4" x="377.36" y="525.76" width="261.62" height="69.27" rx="34.63"/>
  </g>
</svg>
