<svg id="Layer_1" data-name="Layer 1" xmlns="http://www.w3.org/2000/svg" viewBox="0 0 802.16 781.31">
  <defs>
    <style>
      .cls-1 {
        fill: #1c545d;
      }

      .cls-2 {
        fill: #8c8f8c;
      }

      .cls-3 {
        fill: #f3cce0;
      }

      .cls-4 {
        fill: #fff;
      }

      .cls-5 {
        fill: #abafab;
      }

      .cls-6 {
        fill: #616462;
      }
    </style>
  </defs>
  <ellipse class="cls-1" cx="401.08" cy="390.65" rx="401.08" ry="390.65"/>
  <path class="cls-2" d="M451,566.12a3.87,3.87,0,0,1,4.61,1.63c4.21,7,25,42.29,20.42,54.31-4,10.45-12.37,21.22-12.73,21.67a3.89,3.89,0,0,1-5.39.69,3.71,3.71,0,0,1-.7-5.29c.08-.1,8-10.34,11.6-19.71,2.17-5.7-8.59-29.27-19.82-47.82a3.75,3.75,0,0,1,1.35-5.18A3.93,3.93,0,0,1,451,566.12Z" transform="translate(-75.61 -136.98)"/>
  <path class="cls-2" d="M327.62,627.44a3.77,3.77,0,0,0-2.5,4.15c1.29,8,8.26,48.2,19.59,54.6,9.85,5.57,23.32,8.6,23.89,8.73a3.86,3.86,0,0,0,4.61-2.85,3.78,3.78,0,0,0-2.91-4.51c-.13,0-12.91-2.92-21.75-7.91-5.38-3-12.4-27.93-15.82-49.24a3.86,3.86,0,0,0-4.4-3.15A5.27,5.27,0,0,0,327.62,627.44Z" transform="translate(-75.61 -136.98)"/>
  <g>
    <path class="cls-3" d="M738.39,763.57q.06,16.3.13,32.59h-496V431.36h22.86V765.51h450.3V530c-36.5-1.72-41.19-9-42.13-11.29-6-14.94,57.68-39.4,63.74-41.69q.38,64.29.74,128.56" transform="translate(-75.61 -136.98)"/>
    <path class="cls-3" d="M434,668.34c-4.75-3.8,1.14-17.43,9-26.84s12.47-8.42,17.22-4.62,7.79,9-.05,18.4S438.72,672.15,434,668.34Z" transform="translate(-75.61 -136.98)"/>
    <path class="cls-3" d="M392.3,690.32c1.19-5.89-12.22-12.7-24.37-15.05s-15.09,1.33-16.27,7.23-.16,11.8,12,14.14S391.12,696.22,392.3,690.32Z" transform="translate(-75.61 -136.98)"/>
    <polygon class="cls-3" points="177.98 263.58 177.98 200.67 217.93 200.67 217.93 233.94 229.35 225.47 229.35 189.78 166.56 189.78 166.56 272.05 177.98 263.58"/>
  </g>
  <g>
    <path class="cls-4" d="M492.45,249.52,829.11,562.34h0L492.45,203.84h0l-321.56,280Z" transform="translate(-75.61 -136.98)"/>
    <path class="cls-4" d="M249.78,444.5c-6.34-8.42-3.15-20,7.14-25.9l8.27-4.74c10.29-5.9,23.76-3.85,30.1,4.57l28,37.25c6.35,8.42,3.15,20-7.13,25.91l-8.28,4.74c-10.28,5.88-23.75,3.84-30.1-4.58Z" transform="translate(-75.61 -136.98)"/>
    <path class="cls-4" d="M295.9,468.76c.5-.31,1-.62,1.52-.92,26.65-15.48,63.58-2.51,109.75,38.57,32,28.5,57,60.26,58.09,61.6a11,11,0,0,1-2.05,15.63,11.63,11.63,0,0,1-16-2.19c-.25-.31-24.95-31.67-55.49-58.8-36.64-32.54-65.91-45.18-82.44-35.58l-.63.38c-29.76,19,11.29,115.34,36.05,159.4A10.94,10.94,0,0,1,340.21,662a11.65,11.65,0,0,1-15.52-4.55c-.86-1.52-21.08-37.66-35.38-78.11C269,521.68,271.17,484.51,295.9,468.76Z" transform="translate(-75.61 -136.98)"/>
    <path class="cls-4" d="M695.58,473.5a30.84,30.84,0,0,1,43.89,1.19l9.64,10.1c12,12.55,11.77,32.39-.48,44.29l-54.25,52.69a30.87,30.87,0,0,1-43.9-1.19l-9.65-10.11c-12-12.56-11.76-32.38.49-44.28Z" transform="translate(-75.61 -136.98)"/>
  </g>
  <path class="cls-5" d="M682.57,613.1c6.42,45.15-26.75,86.72-74.09,92.84s-90.91-25.51-97.33-70.67,26.75-86.71,74.09-92.83S676.15,568,682.57,613.1Z" transform="translate(-75.61 -136.98)"/>
  <path class="cls-2" d="M660.67,615.83c4.52,31.82-18.84,61.1-52.19,65.41s-64.06-18-68.58-49.79,18.85-61.09,52.2-65.41S656.15,584,660.67,615.83Z" transform="translate(-75.61 -136.98)"/>
  <path class="cls-6" d="M628.19,620.28c2.27,15.9-9.42,30.55-26.09,32.71s-32-9-34.29-24.9,9.42-30.54,26.1-32.7S625.93,604.38,628.19,620.28Z" transform="translate(-75.61 -136.98)"/>
</svg>
