<svg id="Layer_1" data-name="Layer 1" xmlns="http://www.w3.org/2000/svg" viewBox="0 0 825.96 264.73">
  <defs>
    <style>
      .cls-1 {
        fill: #fff;
      }

      .cls-2 {
        fill: #ffcbf2;
      }

      .cls-3 {
        fill: #8c8f8c;
      }

      .cls-4 {
        fill: #abafab;
      }

      .cls-5 {
        fill: #616462;
      }
    </style>
  </defs>
  <g>
    <path class="cls-1" d="M145.83,167.22,296.29,307h0L145.83,146.8h0L2.11,272Z" transform="translate(-2.11 -146.8)"/>
    <path class="cls-2" d="M255.74,397l.06,14.56H34.11v-163H44.33V397.83H245.59V292.56c-16.32-.77-18.42-4-18.83-5-2.69-6.68,25.78-17.61,28.48-18.64q.16,28.74.34,57.46" transform="translate(-2.11 -146.8)"/>
    <path class="cls-3" d="M127.31,308.72a1.74,1.74,0,0,1,2.06.72c1.88,3.12,11.16,18.91,9.12,24.28a43.89,43.89,0,0,1-5.69,9.69,1.73,1.73,0,0,1-2.41.3,1.66,1.66,0,0,1-.31-2.36,41.49,41.49,0,0,0,5.19-8.81c1-2.55-3.85-13.08-8.86-21.37a1.67,1.67,0,0,1,.6-2.32A1.6,1.6,0,0,1,127.31,308.72Z" transform="translate(-2.11 -146.8)"/>
    <path class="cls-2" d="M119.69,354.41c-2.12-1.7.52-7.8,4-12s5.58-3.77,7.7-2.07,3.48,4,0,8.23S121.81,356.11,119.69,354.41Z" transform="translate(-2.11 -146.8)"/>
    <path class="cls-3" d="M72.16,336.13A1.68,1.68,0,0,0,71,338c.58,3.57,3.69,21.54,8.76,24.4a45.46,45.46,0,0,0,10.67,3.9A1.72,1.72,0,0,0,92.53,365a1.69,1.69,0,0,0-1.3-2,42.51,42.51,0,0,1-9.72-3.53c-2.4-1.36-5.54-12.48-7.07-22a1.71,1.71,0,0,0-2-1.4A1.09,1.09,0,0,0,72.16,336.13Z" transform="translate(-2.11 -146.8)"/>
    <path class="cls-2" d="M101.07,364.23c.53-2.64-5.46-5.68-10.9-6.73s-6.74.6-7.27,3.23-.07,5.28,5.36,6.32S100.54,366.86,101.07,364.23Z" transform="translate(-2.11 -146.8)"/>
    <path class="cls-1" d="M37.37,254.36c-2.83-3.76-1.41-8.94,3.19-11.57l3.7-2.12c4.6-2.64,10.61-1.72,13.45,2l12.54,16.65c2.83,3.76,1.4,8.94-3.19,11.58l-3.7,2.12c-4.6,2.63-10.62,1.71-13.45-2.05Z" transform="translate(-2.11 -146.8)"/>
    <path class="cls-1" d="M58,265.21l.68-.42c11.91-6.92,28.42-1.12,49.05,17.24a237.32,237.32,0,0,1,26,27.53,4.89,4.89,0,0,1-.91,7,5.2,5.2,0,0,1-7.16-1,231.74,231.74,0,0,0-24.8-26.28C84.42,274.75,71.34,269.1,64,273.39l-.28.17c-13.3,8.47,5,51.55,16.11,71.24a4.89,4.89,0,0,1-2,6.75,5.2,5.2,0,0,1-6.94-2A250.81,250.81,0,0,1,55,314.61C45.94,288.86,46.93,272.24,58,265.21Z" transform="translate(-2.11 -146.8)"/>
    <path class="cls-1" d="M236.61,267.32a13.79,13.79,0,0,1,19.61.53l4.31,4.52a14.07,14.07,0,0,1-.21,19.79l-24.25,23.55a13.8,13.8,0,0,1-19.62-.53l-4.31-4.52a14.08,14.08,0,0,1,.22-19.79Z" transform="translate(-2.11 -146.8)"/>
    <path class="cls-4" d="M230.8,329.71c2.87,20.18-12,38.76-33.11,41.5s-40.64-11.41-43.51-31.58,12-38.76,33.11-41.5S227.93,309.54,230.8,329.71Z" transform="translate(-2.11 -146.8)"/>
    <path class="cls-3" d="M221,330.94c2,14.21-8.42,27.3-23.33,29.23s-28.63-8-30.65-22.25,8.43-27.31,23.33-29.24S219,316.72,221,330.94Z" transform="translate(-2.11 -146.8)"/>
    <path class="cls-5" d="M206.49,332.92c1,7.11-4.21,13.66-11.66,14.62s-14.31-4-15.32-11.12,4.21-13.66,11.66-14.62S205.48,325.82,206.49,332.92Z" transform="translate(-2.11 -146.8)"/>
    <polygon class="cls-2" points="36.96 87.92 36.96 59.8 54.82 59.8 54.82 74.67 59.92 70.89 59.92 54.94 31.86 54.94 31.86 91.71 36.96 87.92"/>
    <g>
      <path class="cls-1" d="M319.82,307.83q-6.17,0-6.16-6.83V235.46a7.71,7.71,0,0,1,1.59-5.23,5.28,5.28,0,0,1,4.16-1.82,5.68,5.68,0,0,1,3.55.94,17.63,17.63,0,0,1,2.82,3.14l36.69,51V235.13c0-4.47,2-6.72,6.16-6.72s6.07,2.25,6.07,6.72v66.09a7.46,7.46,0,0,1-1.44,4.85,4.79,4.79,0,0,1-3.91,1.76,6.36,6.36,0,0,1-3.75-1,15,15,0,0,1-3-3.2l-36.69-51.1V301Q325.88,307.83,319.82,307.83Z" transform="translate(-2.11 -146.8)"/>
      <path class="cls-1" d="M408.19,327.65a4.9,4.9,0,0,1-4.83-2.75,7.46,7.46,0,0,1,.11-6.28l5.85-13.88-17.57-43.39a7.42,7.42,0,0,1,0-6.39c1-1.84,2.84-2.75,5.65-2.75a5.91,5.91,0,0,1,3.81,1.15,9.77,9.77,0,0,1,2.57,4.35l12.33,33.05,12.64-33.16a9.11,9.11,0,0,1,2.67-4.24,6.68,6.68,0,0,1,4.11-1.15,4.71,4.71,0,0,1,4.62,2.75,7.46,7.46,0,0,1-.1,6.28l-25,61.13a9.89,9.89,0,0,1-2.88,4.18A6.7,6.7,0,0,1,408.19,327.65Z" transform="translate(-2.11 -146.8)"/>
      <path class="cls-1" d="M473.86,308.05q-18.5,0-18.5-22.25V259.14q0-6.93,6.37-6.93t6.47,6.93V286q0,5.73,2.16,8.48c1.44,1.84,3.74,2.75,6.89,2.75a10.61,10.61,0,0,0,8.42-3.8q3.3-3.79,3.29-10.07V259.14q0-6.93,6.37-6.93t6.48,6.93v41.64q0,7.05-6.27,7.05t-6.27-7.05v-1.87Q484.23,308,473.86,308.05Z" transform="translate(-2.11 -146.8)"/>
      <path class="cls-1" d="M527.91,307.83q-6.37,0-6.37-7.05V259.14q0-6.93,6.26-6.93t6.27,6.93v2.21A16.75,16.75,0,0,1,549.59,252q11.29,0,14.8,10.57A18.09,18.09,0,0,1,581.24,252q16.95,0,17,22.13v26.66q0,7.05-6.48,7.05t-6.37-7.05V274.67q0-6.17-1.9-9T577,262.78a9.4,9.4,0,0,0-7.92,3.8q-2.86,3.8-2.87,10.52v23.68q0,7.05-6.37,7.05t-6.48-7.05V274.67q0-6.17-1.9-9c-1.27-1.91-3.37-2.86-6.32-2.86a9.38,9.38,0,0,0-7.91,3.8q-2.88,3.8-2.88,10.52v23.68Q534.38,307.83,527.91,307.83Z" transform="translate(-2.11 -146.8)"/>
      <path class="cls-1" d="M646.6,308.05a18.88,18.88,0,0,1-9.87-2.59,16.45,16.45,0,0,1-6.47-7v2.31q0,7.05-6.27,7.05t-6.37-7.05V235.35q0-6.93,6.37-6.94t6.47,6.94V261a17.14,17.14,0,0,1,6.53-6.56A18.76,18.76,0,0,1,646.6,252a19.87,19.87,0,0,1,11.61,3.41,22.54,22.54,0,0,1,7.7,9.64A36.46,36.46,0,0,1,668.69,280a37,37,0,0,1-2.78,14.93,22.26,22.26,0,0,1-7.75,9.74A20,20,0,0,1,646.6,308.05ZM643,297.58a11.16,11.16,0,0,0,9.25-4.46q3.5-4.46,3.49-13.16t-3.49-13.16a12,12,0,0,0-18.5,0q-3.5,4.35-3.49,13.16t3.49,13.16A11.15,11.15,0,0,0,643,297.58Z" transform="translate(-2.11 -146.8)"/>
      <path class="cls-1" d="M702,308.05a20.49,20.49,0,0,1-9.71-2.26,17.17,17.17,0,0,1-6.68-6.11,16,16,0,0,1-2.41-8.7q0-6,2.87-9.42t9.36-5A77.76,77.76,0,0,1,712.77,275h3.6v-2.32c0-3.67-.76-6.31-2.26-7.93s-4.05-2.42-7.61-2.42a29.79,29.79,0,0,0-6.42.77,32.66,32.66,0,0,0-7.24,2.64q-2.48,1.22-4.11.28a4.66,4.66,0,0,1-2.21-3,6.59,6.59,0,0,1,.2-4.13,5.33,5.33,0,0,1,3.14-3.08,44.51,44.51,0,0,1,9.09-3,40.37,40.37,0,0,1,8-.88q11,0,16.34,5.45t5.35,16.9v26.44q0,7.05-6,7.05t-6.07-7.05v-2.42a14.74,14.74,0,0,1-5.55,7.1A15.69,15.69,0,0,1,702,308.05Zm2.67-9.47a10.76,10.76,0,0,0,8.38-3.75,13.71,13.71,0,0,0,3.34-9.47v-2.42h-3.5q-9.66,0-13.41,1.59a5.79,5.79,0,0,0-3.75,5.78,7.94,7.94,0,0,0,2.37,5.95A9,9,0,0,0,704.65,298.58Z" transform="translate(-2.11 -146.8)"/>
      <path class="cls-1" d="M754.18,307.83q-6.37,0-6.37-7.05V259.14q0-6.93,6.27-6.93t6.27,6.93v2.32a17.52,17.52,0,0,1,6.94-7A19.82,19.82,0,0,1,777.1,252q17.77,0,17.78,22.13v26.66q0,7.05-6.38,7.05T782,300.78v-26q0-6.29-2.21-9.15T773,262.78a11.36,11.36,0,0,0-9,3.8q-3.35,3.8-3.34,10.08v24.12Q760.66,307.83,754.18,307.83Z" transform="translate(-2.11 -146.8)"/>
      <path class="cls-1" d="M820.46,242.07a7.77,7.77,0,0,1-5.6-1.92,7.1,7.1,0,0,1-2-5.35,7,7,0,0,1,2-5.39,7.88,7.88,0,0,1,5.6-1.88q7.6,0,7.61,7.27T820.46,242.07Zm0,65.65a5.78,5.78,0,0,1-4.72-2,8.39,8.39,0,0,1-1.65-5.51V259.81q0-7.5,6.37-7.49t6.48,7.49v40.42a8.39,8.39,0,0,1-1.65,5.51A5.92,5.92,0,0,1,820.46,307.72Z" transform="translate(-2.11 -146.8)"/>
    </g>
    <g>
      <path class="cls-2" d="M321.72,406.44q-6.95,0-7-6.86V338.26q0-6.75,7-6.75t6.94,6.75v26.51h.22L360,334.83a13.82,13.82,0,0,1,3.47-2.49,9,9,0,0,1,3.91-.83q3.15,0,4.5,1.56A4.44,4.44,0,0,1,373,336.7a6.53,6.53,0,0,1-2.12,3.85l-28.53,27,30.05,29.21a6.35,6.35,0,0,1,2.38,4.36,4.65,4.65,0,0,1-1.46,3.79,6.4,6.4,0,0,1-4.61,1.51,7.52,7.52,0,0,1-4.18-1,26.78,26.78,0,0,1-3.63-3l-32-30.66h-.22v27.85Q328.66,406.45,321.72,406.44Z" transform="translate(-2.11 -146.8)"/>
      <path class="cls-2" d="M415.1,406.65q-18.12,0-18.11-19.44V338.06q0-6.56,6.72-6.55t6.84,6.55v48.53q0,9.36,8.13,9.36c.58,0,1.12,0,1.63-.06s1-.08,1.52-.15a1.83,1.83,0,0,1,2.06.78,9.64,9.64,0,0,1,.54,4,6.61,6.61,0,0,1-1.09,4.05,5,5,0,0,1-3.57,1.77A34.13,34.13,0,0,1,415.1,406.65Z" transform="translate(-2.11 -146.8)"/>
      <path class="cls-2" d="M447,344.4a8.8,8.8,0,0,1-5.91-1.82,7.12,7.12,0,0,1,0-10.14,9,9,0,0,1,5.91-1.76q8,0,8,6.86T447,344.4Zm0,61.94a6.49,6.49,0,0,1-5-1.87,7.35,7.35,0,0,1-1.74-5.2V361.13q0-7.06,6.73-7.07t6.83,7.07v38.14a7.35,7.35,0,0,1-1.74,5.2A6.61,6.61,0,0,1,447,406.34Z" transform="translate(-2.11 -146.8)"/>
      <path class="cls-2" d="M483.32,406.44q-6.72,0-6.72-6.65V360.5q0-6.54,6.61-6.54t6.62,6.54v2.19a17.73,17.73,0,0,1,7.32-6.65,22.93,22.93,0,0,1,10.36-2.29q18.76,0,18.76,20.89v25.15q0,6.66-6.72,6.65t-6.84-6.65V375.26c0-3.95-.77-6.82-2.33-8.62s-4-2.71-7.21-2.71a12.7,12.7,0,0,0-9.49,3.59,13,13,0,0,0-3.52,9.51v22.76Q490.16,406.45,483.32,406.44Z" transform="translate(-2.11 -146.8)"/>
      <path class="cls-2" d="M555.45,344.4a8.8,8.8,0,0,1-5.91-1.82,7.12,7.12,0,0,1,0-10.14,9,9,0,0,1,5.91-1.76q8,0,8,6.86T555.45,344.4Zm0,61.94a6.49,6.49,0,0,1-5-1.87,7.35,7.35,0,0,1-1.74-5.2V361.13q0-7.06,6.73-7.07t6.83,7.07v38.14a7.35,7.35,0,0,1-1.74,5.2A6.61,6.61,0,0,1,555.45,406.34Z" transform="translate(-2.11 -146.8)"/>
      <path class="cls-2" d="M591.78,406.44q-6.72,0-6.72-6.65V338.06q0-6.56,6.72-6.55t6.84,6.55v38.35h.21l17.9-18.09a34.12,34.12,0,0,1,3.79-3.22A7.66,7.66,0,0,1,625,354a6,6,0,0,1,4.29,1.4,4.54,4.54,0,0,1,1.46,3.38,5.74,5.74,0,0,1-2,3.95L612.5,379.11l18.11,18.71a5.12,5.12,0,0,1,1.79,4,4.54,4.54,0,0,1-1.79,3.32,6.37,6.37,0,0,1-4.12,1.3,8.92,8.92,0,0,1-4.83-1.14,22.49,22.49,0,0,1-4-3.43L598.83,383h-.21v16.84Q598.62,406.45,591.78,406.44Z" transform="translate(-2.11 -146.8)"/>
      <path class="cls-2" d="M658.59,344.4a8.8,8.8,0,0,1-5.91-1.82,7.15,7.15,0,0,1,0-10.14,9,9,0,0,1,5.91-1.76q8,0,8,6.86T658.59,344.4Zm0,61.94a6.5,6.5,0,0,1-5-1.87,7.39,7.39,0,0,1-1.73-5.2V361.13q0-7.06,6.72-7.07t6.84,7.07v38.14a7.35,7.35,0,0,1-1.74,5.2A6.65,6.65,0,0,1,658.59,406.34Z" transform="translate(-2.11 -146.8)"/>
    </g>
  </g>
</svg>
