<svg id="Layer_1" data-name="Layer 1" xmlns="http://www.w3.org/2000/svg" viewBox="0 0 678.46 252.18">
  <defs>
    <style>
      .cls-1 {
        fill: #455ba9;
      }

      .cls-2 {
        fill: #fff;
      }

      .cls-3 {
        fill: #fdfefe;
      }

      .cls-4 {
        fill: #ed2024;
      }
    </style>
  </defs>
  <g>
    <circle class="cls-1" cx="126.09" cy="126.09" r="126.09"/>
    <path class="cls-2" d="M281.15,373.38v.12a11.06,11.06,0,0,1-11.06,11.09H121.64a11.06,11.06,0,0,1-11.06-11V276.87a3.93,3.93,0,0,1,3.94-3.93h0a3.93,3.93,0,0,1,3.93,3.93V363a11,11,0,0,0,11,11.05H262.28A11.05,11.05,0,0,0,273.33,363V306.86c-12.56-.59-14.17-3.09-14.49-3.88-2.07-5.14,19.84-13.55,21.92-14.34q.12,22.11.26,44.21" transform="translate(-66.63 -171.55)"/>
    <path class="cls-2" d="M114.51,254.91V240.14a6.87,6.87,0,0,1,6.87-6.87h0a6.86,6.86,0,0,1,6.87,6.87v4.57l3.93-2.91v-5.41a6.88,6.88,0,0,0-6.87-6.87h-7.85a6.88,6.88,0,0,0-6.88,6.87v21.43Z" transform="translate(-66.63 -171.55)"/>
    <polygon class="cls-2" points="5.45 114.81 140.25 37 245.24 131.22 138.12 59.56 5.45 114.81"/>
    <circle class="cls-3" cx="129.24" cy="142.52" r="41.12"/>
    <g>
      <rect class="cls-4" x="120.43" y="109.25" width="17.62" height="66.53" rx="8.81"/>
      <rect class="cls-4" x="95.97" y="133.71" width="66.53" height="17.62" rx="8.81"/>
    </g>
  </g>
  <g>
    <path class="cls-2" d="M407.28,284q-11,0-18.9-4.47a30,30,0,0,1-12.09-12.63,41.71,41.71,0,0,1-4.21-19.3q0-11.13,4.21-19.26a30.12,30.12,0,0,1,12.09-12.58q7.86-4.45,18.9-4.46a42.57,42.57,0,0,1,10.83,1.4,32.24,32.24,0,0,1,9.32,4,6.54,6.54,0,0,1,3.11,4.06,5.93,5.93,0,0,1-.6,4.32,5.42,5.42,0,0,1-3.31,2.6c-1.47.44-3.11,0-4.91-1.15a22.11,22.11,0,0,0-6.72-2.91,30.19,30.19,0,0,0-7.32-.9q-10.73,0-16.34,6.47t-5.62,18.4q0,11.92,5.62,18.45t16.34,6.51a29.87,29.87,0,0,0,7.52-.95,25.76,25.76,0,0,0,7-3c1.8-1.13,3.41-1.5,4.81-1.1a5.07,5.07,0,0,1,3.16,2.46,5.85,5.85,0,0,1,.65,4.06,6.33,6.33,0,0,1-2.71,3.91,29.59,29.59,0,0,1-9.57,4.46A41.6,41.6,0,0,1,407.28,284Z" transform="translate(-66.63 -171.55)"/>
    <path class="cls-2" d="M458.12,284q-16.75,0-16.75-18.76V217.81q0-6.33,6.22-6.32t6.31,6.32v46.82q0,9,7.52,9c.54,0,1,0,1.51-.05s.93-.09,1.4-.15a1.65,1.65,0,0,1,1.91.75,9.73,9.73,0,0,1,.5,3.86,6.71,6.71,0,0,1-1,3.91,4.6,4.6,0,0,1-3.31,1.71A30.69,30.69,0,0,1,458.12,284Z" transform="translate(-66.63 -171.55)"/>
    <path class="cls-2" d="M479.57,223.92a7.87,7.87,0,0,1-5.46-1.75,7.08,7.08,0,0,1,0-9.78,8.06,8.06,0,0,1,5.46-1.7q7.43,0,7.42,6.61T479.57,223.92Zm0,59.77a5.86,5.86,0,0,1-4.61-1.81,7.27,7.27,0,0,1-1.6-5v-36.8q0-6.82,6.21-6.82t6.32,6.82v36.8a7.31,7.31,0,0,1-1.6,5A6,6,0,0,1,479.57,283.69Z" transform="translate(-66.63 -171.55)"/>
    <path class="cls-2" d="M505.14,283.79q-6.21,0-6.22-6.42V239.46q0-6.32,6.12-6.31t6.12,6.31v2.11a16.6,16.6,0,0,1,6.77-6.42,20.51,20.51,0,0,1,9.57-2.2q17.36,0,17.35,20.15v24.27q0,6.42-6.22,6.42t-6.32-6.42V253.7c0-3.81-.71-6.58-2.15-8.32s-3.66-2.61-6.67-2.61a11.48,11.48,0,0,0-8.77,3.46,12.82,12.82,0,0,0-3.26,9.18v22Q511.46,283.79,505.14,283.79Z" transform="translate(-66.63 -171.55)"/>
    <path class="cls-2" d="M563.8,223.92a7.92,7.92,0,0,1-5.47-1.75,7.11,7.11,0,0,1,0-9.78,8.1,8.1,0,0,1,5.47-1.7q7.43,0,7.42,6.61T563.8,223.92Zm0,59.77a5.84,5.84,0,0,1-4.61-1.81,7.27,7.27,0,0,1-1.61-5v-36.8q0-6.82,6.22-6.82t6.32,6.82v36.8a7.27,7.27,0,0,1-1.61,5A6,6,0,0,1,563.8,283.69Z" transform="translate(-66.63 -171.55)"/>
    <path class="cls-2" d="M605.81,284a27.38,27.38,0,0,1-13.43-3.16,21.77,21.77,0,0,1-8.83-9,28.51,28.51,0,0,1-3.11-13.63,27.66,27.66,0,0,1,3.11-13.49,21.32,21.32,0,0,1,8.83-8.72A28,28,0,0,1,605.81,233a31.66,31.66,0,0,1,7.17.9,24.07,24.07,0,0,1,7.27,3,4.58,4.58,0,0,1,2.36,3.11,5.32,5.32,0,0,1-.5,3.51,5,5,0,0,1-2.51,2.3,4.13,4.13,0,0,1-3.76-.5,18.12,18.12,0,0,0-8.92-2.61q-6.52,0-10.08,4.06t-3.56,11.59q0,7.41,3.56,11.68t10.08,4.26a18.7,18.7,0,0,0,8.92-2.51,4,4,0,0,1,3.71-.5,4.31,4.31,0,0,1,2.31,2.36,5.81,5.81,0,0,1,.3,3.51,4.85,4.85,0,0,1-2.31,3.06,25,25,0,0,1-7,2.9A29.3,29.3,0,0,1,605.81,284Z" transform="translate(-66.63 -171.55)"/>
    <path class="cls-2" d="M673.79,284a21.1,21.1,0,0,1-9.47-2.06,16.29,16.29,0,0,1-6.52-5.57,13.85,13.85,0,0,1-2.36-7.92c0-3.61.94-6.46,2.81-8.57s4.92-3.63,9.13-4.56a81,81,0,0,1,16.94-1.41h3.51v-2.1q0-5-2.2-7.22c-1.47-1.47-4-2.21-7.42-2.21a31.33,31.33,0,0,0-6.27.7,33.82,33.82,0,0,0-7.07,2.41,4.41,4.41,0,0,1-4,.25A4.33,4.33,0,0,1,658.7,243a5.61,5.61,0,0,1,.2-3.76,5.06,5.06,0,0,1,3.06-2.8,45.59,45.59,0,0,1,8.88-2.71,41.82,41.82,0,0,1,7.77-.8q10.73,0,15.94,5t5.21,15.39v24.07q0,6.42-5.81,6.42T688,277.37v-2.21a13.66,13.66,0,0,1-5.41,6.47A16.15,16.15,0,0,1,673.79,284Zm2.61-8.63a10.79,10.79,0,0,0,8.17-3.41,11.93,11.93,0,0,0,3.26-8.62v-2.21h-3.41q-9.42,0-13.08,1.46a5.26,5.26,0,0,0-3.66,5.26,7,7,0,0,0,2.3,5.42A9.2,9.2,0,0,0,676.4,275.36Z" transform="translate(-66.63 -171.55)"/>
    <path class="cls-2" d="M735,284q-19.46,0-19.45-19.26V243.38h-5.22q-5,0-5-4.72t5-4.71h5.22v-9.12q0-6.33,6.31-6.32t6.22,6.32V234h10.63q5,0,5,4.71t-5,4.72H728V264q0,4.82,2.11,7.22t6.82,2.41a13.47,13.47,0,0,0,3-.3,17.58,17.58,0,0,1,2.31-.4,2.35,2.35,0,0,1,2,.75c.53.57.8,1.72.8,3.46a9.22,9.22,0,0,1-.65,3.56,3.82,3.82,0,0,1-2.36,2.15,26.29,26.29,0,0,1-3.41.75A22.3,22.3,0,0,1,735,284Z" transform="translate(-66.63 -171.55)"/>
  </g>
  <rect class="cls-2" x="434.42" y="149.05" width="244.04" height="65.09" rx="31.01"/>
  <g>
    <path class="cls-4" d="M541.75,373.78q-4.34,0-4.33-4.47V327.78q0-4.41,4.33-4.41t4.41,4.41V344a11.17,11.17,0,0,1,4.68-4.23,14.6,14.6,0,0,1,6.51-1.44q12.09,0,12.09,14.06v16.92q0,4.47-4.33,4.47t-4.41-4.47v-16.5c0-2.66-.5-4.59-1.5-5.81a5.68,5.68,0,0,0-4.65-1.81,8,8,0,0,0-6.12,2.41,9,9,0,0,0-2.27,6.4v15.31Q546.16,373.78,541.75,373.78Z" transform="translate(-66.63 -171.55)"/>
    <path class="cls-4" d="M593.91,373.92a18.82,18.82,0,0,1-9.23-2.16,15.17,15.17,0,0,1-6.08-6.19,19.75,19.75,0,0,1-2.17-9.48,19.49,19.49,0,0,1,2.17-9.43,15.22,15.22,0,0,1,6.08-6.16,20.71,20.71,0,0,1,18.46,0,15.24,15.24,0,0,1,6.09,6.16,19.49,19.49,0,0,1,2.16,9.43,19.75,19.75,0,0,1-2.16,9.48,15.19,15.19,0,0,1-6.09,6.19A18.8,18.8,0,0,1,593.91,373.92Zm0-6.64a7.82,7.82,0,0,0,6.3-2.83c1.58-1.89,2.37-4.67,2.37-8.36s-.79-6.51-2.37-8.35a8.56,8.56,0,0,0-12.59,0c-1.58,1.84-2.38,4.63-2.38,8.35s.8,6.47,2.38,8.36A7.8,7.8,0,0,0,593.91,367.28Z" transform="translate(-66.63 -171.55)"/>
    <path class="cls-4" d="M623.07,373.78q-4.34,0-4.34-4.47V342.88c0-2.94,1.43-4.41,4.27-4.41s4.26,1.47,4.26,4.41v1.4a11.15,11.15,0,0,1,4.27-4.37,12.37,12.37,0,0,1,6.29-1.58q7.7,0,10.07,6.72a11.88,11.88,0,0,1,4.62-4.93,13.13,13.13,0,0,1,6.85-1.79q11.53,0,11.53,14.06v16.92c0,3-1.46,4.47-4.4,4.47s-4.34-1.49-4.34-4.47V352.74q0-3.92-1.29-5.74t-4.37-1.81a6.54,6.54,0,0,0-5.38,2.41,10.29,10.29,0,0,0-2,6.68v15q0,4.47-4.34,4.47t-4.4-4.47V352.74q0-3.92-1.29-5.74a4.93,4.93,0,0,0-4.3-1.81,6.56,6.56,0,0,0-5.39,2.41,10.34,10.34,0,0,0-2,6.68v15C627.47,372.29,626,373.78,623.07,373.78Z" transform="translate(-66.63 -171.55)"/>
    <path class="cls-4" d="M696.76,373.92a21.53,21.53,0,0,1-10-2.16,15.39,15.39,0,0,1-6.47-6.16,20.74,20.74,0,0,1-.07-18.73,16.12,16.12,0,0,1,6.08-6.26,17.16,17.16,0,0,1,8.85-2.28q7.26,0,11.5,4.62t4.23,12.59q0,2.58-3.36,2.58H686.42q1,9.17,10.48,9.16a21.16,21.16,0,0,0,4.09-.45,14.92,14.92,0,0,0,4.3-1.58,4,4,0,0,1,3.08-.66,2.77,2.77,0,0,1,1.78,1.5,3.47,3.47,0,0,1,.14,2.49,4.15,4.15,0,0,1-2,2.34,18.31,18.31,0,0,1-5.63,2.27A26.33,26.33,0,0,1,696.76,373.92Zm-1.25-29.64a8.41,8.41,0,0,0-6.23,2.38,10.52,10.52,0,0,0-2.86,6.43h17.2a10.49,10.49,0,0,0-2.35-6.54A7.38,7.38,0,0,0,695.51,344.28Z" transform="translate(-66.63 -171.55)"/>
  </g>
</svg>
