<svg id="Layer_1" data-name="Layer 1" xmlns="http://www.w3.org/2000/svg" viewBox="0 0 732.68 252.18">
  <defs>
    <style>
      .cls-1 {
        fill: #fff;
      }

      .cls-2 {
        fill: #ed2024;
      }

      .cls-3 {
        fill: #455ba9;
      }

      .cls-4 {
        fill: #fdfefe;
      }
    </style>
  </defs>
  <rect class="cls-1" x="300.36" y="145.86" width="232.53" height="62.02" rx="31.01"/>
  <g>
    <path class="cls-1" d="M371.86,274.5c-3.46,0-5.18-1.91-5.18-5.74V213.64a6.45,6.45,0,0,1,1.34-4.4,4.43,4.43,0,0,1,3.5-1.53,4.79,4.79,0,0,1,3,.79,15,15,0,0,1,2.37,2.64L407.73,254V213.36c0-3.76,1.73-5.65,5.18-5.65s5.1,1.89,5.1,5.65v55.58A6.26,6.26,0,0,1,416.8,273a4,4,0,0,1-3.28,1.48,5.38,5.38,0,0,1-3.16-.83,12.64,12.64,0,0,1-2.55-2.69L377,228v40.76Q377,274.51,371.86,274.5Z" transform="translate(-66.63 -171.55)"/>
    <path class="cls-1" d="M446.18,291.18a4.12,4.12,0,0,1-4.06-2.32,6.26,6.26,0,0,1,.09-5.28l4.92-11.67-14.77-36.5a6.21,6.21,0,0,1,0-5.37c.8-1.54,2.39-2.32,4.75-2.32a5,5,0,0,1,3.2,1,8.22,8.22,0,0,1,2.16,3.65l10.37,27.79,10.63-27.88a7.6,7.6,0,0,1,2.24-3.56,5.64,5.64,0,0,1,3.46-1,4,4,0,0,1,3.89,2.32,6.29,6.29,0,0,1-.08,5.28l-21,51.41a8.32,8.32,0,0,1-2.42,3.52A5.62,5.62,0,0,1,446.18,291.18Z" transform="translate(-66.63 -171.55)"/>
    <path class="cls-1" d="M501.41,274.69q-15.56,0-15.56-18.71V233.56q0-5.84,5.36-5.84t5.44,5.84v22.6q0,4.81,1.82,7.13t5.79,2.32a9,9,0,0,0,7.09-3.2,12.5,12.5,0,0,0,2.76-8.47V233.56q0-5.84,5.36-5.84t5.44,5.84v35c0,4-1.75,5.93-5.27,5.93s-5.27-2-5.27-5.93V267A13.85,13.85,0,0,1,501.41,274.69Z" transform="translate(-66.63 -171.55)"/>
    <path class="cls-1" d="M546.86,274.5c-3.57,0-5.35-2-5.35-5.93v-35c0-3.89,1.75-5.84,5.27-5.84s5.27,1.95,5.27,5.84v1.85a14.1,14.1,0,0,1,13.05-7.87q9.51,0,12.45,8.89a15.23,15.23,0,0,1,14.17-8.89q14.26,0,14.26,18.62v22.41c0,4-1.82,5.93-5.45,5.93s-5.35-2-5.35-5.93V246.62c0-3.46-.54-6-1.6-7.6s-2.87-2.4-5.41-2.4a7.88,7.88,0,0,0-6.65,3.19q-2.41,3.19-2.42,8.85v19.91c0,4-1.79,5.93-5.36,5.93s-5.44-2-5.44-5.93V246.62c0-3.46-.54-6-1.6-7.6s-2.84-2.4-5.32-2.4a7.88,7.88,0,0,0-6.65,3.19q-2.41,3.19-2.42,8.85v19.91C552.31,272.53,550.49,274.5,546.86,274.5Z" transform="translate(-66.63 -171.55)"/>
    <path class="cls-1" d="M646.68,274.69a15.81,15.81,0,0,1-8.29-2.18,13.85,13.85,0,0,1-5.45-5.88v1.94c0,4-1.76,5.93-5.27,5.93s-5.36-2-5.36-5.93v-55q0-5.84,5.36-5.84t5.44,5.84v21.58a14.45,14.45,0,0,1,5.49-5.51,15.79,15.79,0,0,1,8.08-2.08,16.77,16.77,0,0,1,9.77,2.87,19,19,0,0,1,6.48,8.1,30.65,30.65,0,0,1,2.33,12.56,31,31,0,0,1-2.33,12.55,18.78,18.78,0,0,1-6.52,8.2A16.84,16.84,0,0,1,646.68,274.69Zm-3-8.8a9.41,9.41,0,0,0,7.78-3.75c1.95-2.51,2.94-6.2,2.94-11.07s-1-8.63-2.94-11.07a10.1,10.1,0,0,0-15.56,0q-2.94,3.66-2.94,11.07t2.94,11.07A9.39,9.39,0,0,0,643.66,265.89Z" transform="translate(-66.63 -171.55)"/>
    <path class="cls-1" d="M693.26,274.69a17.24,17.24,0,0,1-8.16-1.9,14.48,14.48,0,0,1-5.62-5.14,13.44,13.44,0,0,1-2-7.32c0-3.34.8-6,2.42-7.92s4.23-3.35,7.86-4.22a65.92,65.92,0,0,1,14.61-1.29h3v-2q0-4.63-1.9-6.67t-6.39-2a25.1,25.1,0,0,0-5.41.65,27.85,27.85,0,0,0-6.09,2.23,3.59,3.59,0,0,1-3.45.23,3.92,3.92,0,0,1-1.86-2.5,5.55,5.55,0,0,1,.17-3.48,4.47,4.47,0,0,1,2.64-2.59,36.94,36.94,0,0,1,7.64-2.5,33.74,33.74,0,0,1,6.7-.74q9.26,0,13.74,4.58t4.5,14.22v22.23c0,4-1.67,5.93-5,5.93s-5.1-2-5.1-5.93v-2a12.48,12.48,0,0,1-4.67,6A13.21,13.21,0,0,1,693.26,274.69Zm2.25-8a9,9,0,0,0,7-3.15,11.48,11.48,0,0,0,2.81-8v-2h-2.94q-8.11,0-11.27,1.34a4.86,4.86,0,0,0-3.16,4.86,6.7,6.7,0,0,0,2,5A7.59,7.59,0,0,0,695.51,266.72Z" transform="translate(-66.63 -171.55)"/>
    <path class="cls-1" d="M737.17,274.5c-3.58,0-5.36-2-5.36-5.93v-35q0-5.84,5.27-5.84t5.27,5.84v1.94a14.79,14.79,0,0,1,5.84-5.92,16.65,16.65,0,0,1,8.25-2q15,0,14.95,18.62v22.41c0,4-1.79,5.93-5.36,5.93s-5.44-2-5.44-5.93V246.71q0-5.28-1.86-7.69t-5.75-2.4a9.55,9.55,0,0,0-7.56,3.19,12.4,12.4,0,0,0-2.81,8.48v20.28C742.61,272.53,740.8,274.5,737.17,274.5Z" transform="translate(-66.63 -171.55)"/>
    <path class="cls-1" d="M792.91,219.2a6.51,6.51,0,0,1-4.71-1.62,6.88,6.88,0,0,1,0-9,6.62,6.62,0,0,1,4.71-1.58q6.39,0,6.39,6.12T792.91,219.2Zm0,55.21a4.88,4.88,0,0,1-4-1.67,7,7,0,0,1-1.38-4.63v-34q0-6.29,5.36-6.29t5.44,6.29v34a7,7,0,0,1-1.38,4.63A5,5,0,0,1,792.91,274.41Z" transform="translate(-66.63 -171.55)"/>
  </g>
  <g>
    <path class="cls-2" d="M398.49,365.36q-3.32,0-3.32-3.27V332.83q0-3.22,3.32-3.23c2.2,0,3.31,1.08,3.31,3.23v12.64h.1l14.86-14.28a6.32,6.32,0,0,1,1.65-1.19,4.35,4.35,0,0,1,1.87-.4,2.68,2.68,0,0,1,2.14.75,2.06,2.06,0,0,1,.52,1.73,3,3,0,0,1-1,1.84l-13.61,12.89,14.34,13.94a3.08,3.08,0,0,1,1.14,2.08,2.26,2.26,0,0,1-.7,1.81,3.07,3.07,0,0,1-2.2.72,3.59,3.59,0,0,1-2-.5,13.69,13.69,0,0,1-1.73-1.43L401.9,348.8h-.1v13.29C401.8,364.27,400.69,365.36,398.49,365.36Z" transform="translate(-66.63 -171.55)"/>
    <path class="cls-2" d="M443.05,365.46q-8.64,0-8.64-9.27V332.73c0-2.09,1.06-3.13,3.2-3.13s3.26,1,3.26,3.13v23.16q0,4.46,3.89,4.46l.77,0c.24,0,.49,0,.73-.08a.88.88,0,0,1,1,.37,4.64,4.64,0,0,1,.26,1.91,3.15,3.15,0,0,1-.52,1.94,2.38,2.38,0,0,1-1.71.84A16.12,16.12,0,0,1,443.05,365.46Z" transform="translate(-66.63 -171.55)"/>
    <path class="cls-2" d="M458.26,335.75a4.21,4.21,0,0,1-2.82-.87,3.39,3.39,0,0,1,0-4.83,4.31,4.31,0,0,1,2.82-.84c2.56,0,3.83,1.09,3.83,3.27S460.82,335.75,458.26,335.75Zm0,29.56a3.12,3.12,0,0,1-2.38-.89,3.52,3.52,0,0,1-.82-2.48v-18.2c0-2.25,1.06-3.38,3.2-3.38s3.27,1.13,3.27,3.38v18.2a3.52,3.52,0,0,1-.83,2.48A3.2,3.2,0,0,1,458.26,365.31Z" transform="translate(-66.63 -171.55)"/>
    <path class="cls-2" d="M475.6,365.36q-3.21,0-3.21-3.17V343.44c0-2.08,1.06-3.12,3.16-3.12s3.16,1,3.16,3.12v1a8.41,8.41,0,0,1,3.49-3.17,11,11,0,0,1,4.94-1.09q9,0,9,10v12q0,3.17-3.21,3.17t-3.26-3.17V350.48a6.23,6.23,0,0,0-1.11-4.11,4.32,4.32,0,0,0-3.45-1.29,6.05,6.05,0,0,0-4.52,1.71,6.16,6.16,0,0,0-1.69,4.54v10.86C478.86,364.3,477.78,365.36,475.6,365.36Z" transform="translate(-66.63 -171.55)"/>
    <path class="cls-2" d="M510,335.75a4.17,4.17,0,0,1-2.82-.87,3.39,3.39,0,0,1,0-4.83,4.27,4.27,0,0,1,2.82-.84q3.83,0,3.83,3.27T510,335.75Zm0,29.56a3.09,3.09,0,0,1-2.38-.89,3.52,3.52,0,0,1-.83-2.48v-18.2q0-3.37,3.21-3.38t3.26,3.38v18.2a3.52,3.52,0,0,1-.83,2.48A3.16,3.16,0,0,1,510,365.31Z" transform="translate(-66.63 -171.55)"/>
    <path class="cls-2" d="M527.36,365.36q-3.21,0-3.21-3.17V332.73q0-3.14,3.21-3.13t3.26,3.13V351h.1l8.54-8.63a17.89,17.89,0,0,1,1.81-1.54,3.69,3.69,0,0,1,2.13-.54,2.84,2.84,0,0,1,2,.67,2.12,2.12,0,0,1,.7,1.61,2.72,2.72,0,0,1-.93,1.88l-7.77,7.84,8.65,8.92a2.46,2.46,0,0,1,.85,1.91,2.19,2.19,0,0,1-.85,1.59,3.09,3.09,0,0,1-2,.62,4.25,4.25,0,0,1-2.3-.54,10.73,10.73,0,0,1-1.89-1.64l-9-9h-.1v8Q530.62,365.36,527.36,365.36Z" transform="translate(-66.63 -171.55)"/>
    <path class="cls-2" d="M559.24,335.75a4.17,4.17,0,0,1-2.82-.87,3.39,3.39,0,0,1,0-4.83,4.27,4.27,0,0,1,2.82-.84q3.82,0,3.83,3.27T559.24,335.75Zm0,29.56a3.09,3.09,0,0,1-2.38-.89,3.52,3.52,0,0,1-.83-2.48v-18.2q0-3.37,3.21-3.38t3.26,3.38v18.2a3.52,3.52,0,0,1-.83,2.48A3.16,3.16,0,0,1,559.24,365.31Z" transform="translate(-66.63 -171.55)"/>
  </g>
  <g>
    <circle class="cls-3" cx="126.09" cy="126.09" r="126.09"/>
    <path class="cls-1" d="M281.15,373.38v.12a11.06,11.06,0,0,1-11.06,11.09H121.64a11.06,11.06,0,0,1-11.06-11V276.87a3.93,3.93,0,0,1,3.94-3.93h0a3.93,3.93,0,0,1,3.93,3.93V363a11,11,0,0,0,11,11.05H262.28A11.05,11.05,0,0,0,273.33,363V306.86c-12.56-.59-14.17-3.09-14.49-3.88-2.07-5.14,19.84-13.55,21.92-14.34q.12,22.11.26,44.21" transform="translate(-66.63 -171.55)"/>
    <path class="cls-1" d="M114.51,254.91V240.14a6.87,6.87,0,0,1,6.87-6.87h0a6.86,6.86,0,0,1,6.87,6.87v4.57l3.93-2.91v-5.41a6.88,6.88,0,0,0-6.87-6.87h-7.85a6.88,6.88,0,0,0-6.88,6.87v21.43Z" transform="translate(-66.63 -171.55)"/>
    <polygon class="cls-1" points="5.45 114.81 140.25 37 245.24 131.22 138.12 59.56 5.45 114.81"/>
    <circle class="cls-4" cx="129.24" cy="142.52" r="41.12"/>
    <g>
      <rect class="cls-2" x="120.43" y="109.25" width="17.62" height="66.53" rx="8.81"/>
      <rect class="cls-2" x="95.97" y="133.71" width="66.53" height="17.62" rx="8.81"/>
    </g>
  </g>
</svg>
