<svg id="Layer_1" data-name="Layer 1" xmlns="http://www.w3.org/2000/svg" viewBox="0 0 974.23 430.95">
  <defs>
    <style>
      .cls-1 {
        fill: #f9f9fa;
      }

      .cls-2 {
        fill: #fff;
      }

      .cls-3 {
        fill: #ed2024;
      }
    </style>
  </defs>
  <g>
    <path class="cls-1" d="M104.81,476Q76,476,55.44,464.32a78.34,78.34,0,0,1-31.56-33q-11-21.35-11-50.42t11-50.28a78.54,78.54,0,0,1,31.56-32.87Q76,286.1,104.81,286.1a110.43,110.43,0,0,1,28.28,3.66,83.52,83.52,0,0,1,24.36,10.48q6.81,4.45,8.12,10.61A15.6,15.6,0,0,1,164,322.11a14.19,14.19,0,0,1-8.65,6.81q-5.76,1.69-12.83-3A58.11,58.11,0,0,0,125,318.31,78.57,78.57,0,0,0,105.86,316q-28,0-42.69,16.89T48.5,380.9q0,31.17,14.67,48.19t42.69,17a78.62,78.62,0,0,0,19.64-2.48,67.73,67.73,0,0,0,18.33-7.73q7.06-4.45,12.57-2.88a13.31,13.31,0,0,1,8.25,6.42,15.24,15.24,0,0,1,1.7,10.6q-1,5.76-7.07,10.22a77.77,77.77,0,0,1-25,11.65A108.88,108.88,0,0,1,104.81,476Z" transform="translate(-12.88 -284.52)"/>
    <path class="cls-1" d="M237.59,476q-43.74,0-43.74-49V303.12q0-16.5,16.24-16.5,16.5,0,16.5,16.5v122.3q0,23.58,19.64,23.58c1.4,0,2.7-.05,3.93-.14s2.44-.21,3.67-.39q3.66-.53,5,2t1.31,10.08q0,6.54-2.62,10.21t-8.64,4.46A80.14,80.14,0,0,1,237.59,476Z" transform="translate(-12.88 -284.52)"/>
    <path class="cls-1" d="M293.63,319.1q-9.17,0-14.27-4.59t-5.11-12.7q0-8.38,5.11-12.83t14.27-4.46q19.38,0,19.38,17.29T293.63,319.1Zm0,156.09q-7.86,0-12.05-4.72t-4.19-13.09V361.26q0-17.81,16.24-17.81,16.5,0,16.5,17.81v96.12q0,8.39-4.19,13.09T293.63,475.19Z" transform="translate(-12.88 -284.52)"/>
    <path class="cls-1" d="M360.41,475.45q-16.25,0-16.24-16.76v-99q0-16.5,16-16.5t16,16.5v5.5a43.52,43.52,0,0,1,17.68-16.76,53.61,53.61,0,0,1,25-5.76q45.32,0,45.31,52.64v63.38q0,16.76-16.24,16.76-16.5,0-16.5-16.76V396.88q0-14.92-5.63-21.74t-17.41-6.81q-14.41,0-22.92,9t-8.51,24v57.36Q376.91,475.45,360.41,475.45Z" transform="translate(-12.88 -284.52)"/>
    <path class="cls-1" d="M513.62,319.1q-9.18,0-14.28-4.59t-5.1-12.7q0-8.38,5.1-12.83t14.28-4.46q19.38,0,19.38,17.29T513.62,319.1Zm0,156.09q-7.86,0-12.05-4.72t-4.19-13.09V361.26q0-17.81,16.24-17.81,16.5,0,16.5,17.81v96.12q0,8.39-4.19,13.09T513.62,475.19Z" transform="translate(-12.88 -284.52)"/>
    <path class="cls-1" d="M623.35,476q-20.18,0-35.09-8.25a56.72,56.72,0,0,1-23-23.44q-8.13-15.18-8.12-35.62t8.12-35.22a55.75,55.75,0,0,1,23-22.79q14.93-8,35.09-8A82.6,82.6,0,0,1,642.07,345a63.31,63.31,0,0,1,19,7.86q5.24,3.14,6.16,8.12a13.71,13.71,0,0,1-1.31,9.16,13,13,0,0,1-6.55,6q-4.32,1.83-9.82-1.31-12-6.81-23.31-6.81-17,0-26.32,10.61t-9.3,30.24q0,19.4,9.3,30.52t26.32,11.13q11.25,0,23.31-6.55c3.67-2.1,6.89-2.53,9.69-1.31a11.24,11.24,0,0,1,6,6.15A15,15,0,0,1,666,458a12.54,12.54,0,0,1-6,8,64.64,64.64,0,0,1-18.33,7.59A77.22,77.22,0,0,1,623.35,476Z" transform="translate(-12.88 -284.52)"/>
    <path class="cls-1" d="M800.91,476a55.11,55.11,0,0,1-24.75-5.37,42.77,42.77,0,0,1-17-14.53A36.23,36.23,0,0,1,753,435.38q0-14.14,7.33-22.4t23.84-11.91q16.5-3.66,44.26-3.67h9.16v-5.5q0-13.09-5.76-18.86t-19.38-5.76a80.54,80.54,0,0,0-16.37,1.84,87.46,87.46,0,0,0-18.46,6.28q-6.29,2.88-10.48.66a11.27,11.27,0,0,1-5.63-7.07,14.7,14.7,0,0,1,.53-9.83q2-5,8-7.33a118.88,118.88,0,0,1,23.18-7.07,110.23,110.23,0,0,1,20.3-2.09q28,0,41.64,13t13.62,40.2v62.86q0,16.76-15.19,16.76-15.45,0-15.45-16.76v-5.77A35.81,35.81,0,0,1,824,469.82Q814.26,476,800.91,476Zm6.81-22.52a28.28,28.28,0,0,0,21.34-8.91q8.51-8.9,8.51-22.52v-5.76h-8.9q-24.61,0-34.18,3.8t-9.56,13.74A18.28,18.28,0,0,0,791,448Q797,453.44,807.72,453.45Z" transform="translate(-12.88 -284.52)"/>
    <path class="cls-1" d="M960.66,476q-50.8,0-50.8-50.28V369.9H896.24q-13.11,0-13.1-12.31t13.1-12.31h13.62V321.45q0-16.5,16.5-16.5,16.23,0,16.23,16.5v23.83h27.76q13.1,0,13.1,12.31t-13.1,12.31H942.59v54q0,12.57,5.5,18.86T965.9,449a35.39,35.39,0,0,0,7.86-.79,50.83,50.83,0,0,1,6-1,6.14,6.14,0,0,1,5.24,2q2.1,2.22,2.1,9a23.77,23.77,0,0,1-1.71,9.3,9.88,9.88,0,0,1-6.15,5.63,72.39,72.39,0,0,1-8.91,2A59.94,59.94,0,0,1,960.66,476Z" transform="translate(-12.88 -284.52)"/>
  </g>
  <rect class="cls-2" x="336.85" y="260.95" width="637.39" height="170" rx="31.01"/>
  <g>
    <path class="cls-3" d="M456,684.39q-11.32,0-11.32-11.68V564.23q0-11.51,11.32-11.51,11.5,0,11.51,11.51V606.6a29.37,29.37,0,0,1,12.23-11.05,38.15,38.15,0,0,1,17-3.75q31.61,0,31.6,36.71v44.2q0,11.68-11.33,11.68-11.5,0-11.5-11.68v-43.1q0-10.41-3.93-15.16t-12.14-4.75q-10.05,0-16,6.3t-5.93,16.71v40Q467.55,684.4,456,684.39Z" transform="translate(-12.88 -284.52)"/>
    <path class="cls-3" d="M592.27,684.76q-13.87,0-24.1-5.67a39.34,39.34,0,0,1-15.89-16.16q-5.67-10.5-5.66-24.74t5.66-24.65a39.62,39.62,0,0,1,15.89-16.08q10.22-5.65,24.1-5.66t24.11,5.66a39.75,39.75,0,0,1,15.89,16.08q5.65,10.41,5.66,24.65t-5.66,24.74a39.46,39.46,0,0,1-15.89,16.16Q606.15,684.76,592.27,684.76Zm0-17.35q10.23,0,16.44-7.4t6.21-21.82q0-14.61-6.21-21.82t-16.44-7.22q-10.23,0-16.43,7.22t-6.21,21.82q0,14.43,6.21,21.82T592.27,667.41Z" transform="translate(-12.88 -284.52)"/>
    <path class="cls-3" d="M668.42,684.39q-11.32,0-11.32-11.68v-69q0-11.49,11.14-11.5t11.14,11.5v3.66a29.13,29.13,0,0,1,11.14-11.42A32.3,32.3,0,0,1,707,591.8q20.1,0,26.3,17.53a31.19,31.19,0,0,1,12.06-12.87,34.32,34.32,0,0,1,17.89-4.66q30.13,0,30.13,36.71v44.2q0,11.68-11.5,11.68-11.33,0-11.32-11.68V629.42q0-10.21-3.38-15t-11.41-4.75q-9,0-14.07,6.3t-5.11,17.44v39.27q0,11.68-11.32,11.68-11.51,0-11.51-11.68V629.42q0-10.21-3.38-15T699.1,609.7q-8.94,0-14.06,6.3t-5.11,17.44v39.27Q679.93,684.4,668.42,684.39Z" transform="translate(-12.88 -284.52)"/>
    <path class="cls-3" d="M860.9,684.76q-15.15,0-26.11-5.67A40.12,40.12,0,0,1,817.9,663Q812,652.62,812,638.37q0-13.87,5.75-24.29a42.3,42.3,0,0,1,15.89-16.34,44.84,44.84,0,0,1,23.1-5.94q19,0,30,12.06t11,32.87q0,6.75-8.76,6.76H833.87q2.57,23.93,27.4,23.92A55.18,55.18,0,0,0,872,666.22a38.76,38.76,0,0,0,11.23-4.11q4.76-2.73,8-1.73a7.24,7.24,0,0,1,4.66,3.92,9.08,9.08,0,0,1,.36,6.49q-1,3.56-5.21,6.11a47.43,47.43,0,0,1-14.7,5.94A68.8,68.8,0,0,1,860.9,684.76Zm-3.28-77.43q-10.05,0-16.26,6.21t-7.49,16.8H878.8q-.74-11.15-6.12-17.08T857.62,607.33Z" transform="translate(-12.88 -284.52)"/>
  </g>
</svg>
