<svg id="Layer_1" data-name="Layer 1" xmlns="http://www.w3.org/2000/svg" viewBox="0 0 967.86 337">
  <defs>
    <style>
      .cls-1 {
        fill: #fff;
      }

      .cls-2 {
        fill: #f3cce0;
      }
    </style>
  </defs>
  <g>
    <path class="cls-1" d="M27.67,482.57q-11.59,0-11.6-12.85V346.42q0-6.42,3-9.85a9.93,9.93,0,0,1,7.83-3.41c3,0,5.19.59,6.67,1.76a33,33,0,0,1,5.32,5.9l69,95.95v-91q0-12.65,11.6-12.64,11.4,0,11.41,12.64V470.14c0,3.87-.91,6.91-2.71,9.11a9,9,0,0,1-7.35,3.32,11.86,11.86,0,0,1-7-1.87,27.78,27.78,0,0,1-5.71-6l-69-96.16v91.18Q39.08,482.58,27.67,482.57Z" transform="translate(-16.07 -331.5)"/>
    <path class="cls-1" d="M193.94,519.87q-6.57,0-9.08-5.18t.19-11.81l11-26.11L163,395.12q-2.72-6.84,0-12t10.63-5.18a11.1,11.1,0,0,1,7.16,2.17q2.7,2.18,4.83,8.19l23.2,62.17,23.78-62.38c1.42-3.86,3.09-6.53,5-8a12.57,12.57,0,0,1,7.73-2.17c4.13,0,7,1.73,8.7,5.18s1.61,7.39-.19,11.81l-47,115q-2.52,5.8-5.42,7.88A12.67,12.67,0,0,1,193.94,519.87Z" transform="translate(-16.07 -331.5)"/>
    <path class="cls-1" d="M317.49,483q-34.8,0-34.81-41.86V391q0-13.05,12-13.05,12.18,0,12.18,13.05v50.57q0,10.77,4.06,16t13,5.18a20,20,0,0,0,15.85-7.15q6.18-7.15,6.19-19V391q0-13.05,12-13.05,12.18,0,12.18,13.05v78.34q0,13.26-11.79,13.26t-11.79-13.26v-3.53Q337,483,317.49,483Z" transform="translate(-16.07 -331.5)"/>
    <path class="cls-1" d="M419.18,482.57q-12,0-12-13.26V391q0-13.05,11.8-13.05T430.78,391v4.15a32,32,0,0,1,11.8-12.95A32.36,32.36,0,0,1,460,377.5q21.25,0,27.84,19.9a34.12,34.12,0,0,1,31.71-19.9q31.89,0,31.9,41.66v50.15q0,13.26-12.18,13.26-12,0-12-13.26V420.19q0-11.6-3.58-17t-12.08-5.39q-9.48,0-14.89,7.15t-5.41,19.79v44.56q0,13.26-12,13.26-12.18,0-12.18-13.26V420.19q0-11.6-3.58-17t-11.89-5.39q-9.46,0-14.88,7.15t-5.42,19.79v44.56Q431.36,482.57,419.18,482.57Z" transform="translate(-16.07 -331.5)"/>
    <path class="cls-1" d="M642.49,483a35.43,35.43,0,0,1-18.56-4.86A31.08,31.08,0,0,1,611.75,465v4.35q0,13.26-11.79,13.26-12,0-12-13.26V346.21q0-13.05,12-13,12.18,0,12.18,13V394.5a32.07,32.07,0,0,1,12.27-12.33,35.32,35.32,0,0,1,18.08-4.67,37.46,37.46,0,0,1,21.85,6.43q9.28,6.42,14.5,18.13t5.22,28.08q0,16.17-5.22,28.08t-14.6,18.34A37.56,37.56,0,0,1,642.49,483Zm-6.76-19.68a21,21,0,0,0,17.4-8.39q6.57-8.4,6.57-24.77,0-16.58-6.57-24.76a22.59,22.59,0,0,0-34.81,0q-6.57,8.19-6.57,24.76,0,16.38,6.57,24.77A21,21,0,0,0,635.73,463.3Z" transform="translate(-16.07 -331.5)"/>
    <path class="cls-1" d="M746.7,483a38.47,38.47,0,0,1-18.27-4.24,32.32,32.32,0,0,1-12.57-11.51,30.17,30.17,0,0,1-4.54-16.37q0-11.19,5.41-17.71t17.6-9.43q12.18-2.91,32.67-2.9h6.77v-4.36q0-10.35-4.26-14.92T755.21,397a56,56,0,0,0-12.09,1.45,61.56,61.56,0,0,0-13.63,5q-4.63,2.28-7.73.52a8.86,8.86,0,0,1-4.16-5.6,12.36,12.36,0,0,1,.39-7.77,10,10,0,0,1,5.89-5.8,83,83,0,0,1,17.12-5.6,76.64,76.64,0,0,1,15-1.66q20.68,0,30.74,10.26t10.06,31.81v49.74q0,13.26-11.22,13.26-11.4,0-11.41-13.26v-4.56a27.93,27.93,0,0,1-10.44,13.37A29.54,29.54,0,0,1,746.7,483Zm5-17.82a20.21,20.21,0,0,0,15.75-7q6.28-7,6.29-17.82v-4.56h-6.58q-18.16,0-25.23,3t-7.05,10.88a15,15,0,0,0,4.44,11.19Q743.81,465.16,751.73,465.16Z" transform="translate(-16.07 -331.5)"/>
    <path class="cls-1" d="M844.92,482.57q-12,0-12-13.26V391q0-13.05,11.79-13.05T856.52,391v4.36a33.15,33.15,0,0,1,13.05-13.27A37.48,37.48,0,0,1,888,377.5q33.45,0,33.45,41.66v50.15q0,13.26-12,13.26-12.18,0-12.18-13.26V420.4q0-11.81-4.15-17.2t-12.86-5.39q-10.63,0-16.92,7.15t-6.28,19v45.39Q857.1,482.57,844.92,482.57Z" transform="translate(-16.07 -331.5)"/>
    <path class="cls-1" d="M969.62,358.85q-6.76,0-10.54-3.62t-3.77-10.05q0-6.63,3.77-10.16t10.54-3.52q14.31,0,14.31,13.68T969.62,358.85Zm0,123.51q-5.8,0-8.89-3.73t-3.1-10.36v-76q0-14.1,12-14.09,12.18,0,12.18,14.09v76q0,6.64-3.09,10.36T969.62,482.36Z" transform="translate(-16.07 -331.5)"/>
  </g>
  <g>
    <path class="cls-2" d="M31.24,668.11q-13.06,0-13.06-12.91V539.84q0-12.72,13.06-12.72T44.3,539.84V589.7h.41l58.56-56.32a25.76,25.76,0,0,1,6.53-4.69,16.86,16.86,0,0,1,7.35-1.57c3.94,0,6.77,1,8.47,2.94a8.33,8.33,0,0,1,2,6.84,12.21,12.21,0,0,1-4,7.24L70,595l56.53,54.95q4.29,3.9,4.49,8.21a8.88,8.88,0,0,1-2.76,7.14c-2,1.88-4.86,2.83-8.67,2.83a14.07,14.07,0,0,1-7.86-2,51.78,51.78,0,0,1-6.83-5.67L44.71,602.8H44.3v52.4Q44.3,668.11,31.24,668.11Z" transform="translate(-16.07 -331.5)"/>
    <path class="cls-2" d="M206.94,668.5q-34.08,0-34.08-36.56v-92.5q0-12.32,12.65-12.32,12.86,0,12.86,12.32v91.32q0,17.61,15.3,17.6c1.09,0,2.11,0,3.06-.1s1.91-.16,2.86-.29q2.85-.39,3.88,1.47t1,7.52c0,3.26-.68,5.81-2,7.63s-3.61,2.93-6.74,3.33A64.7,64.7,0,0,1,206.94,668.5Z" transform="translate(-16.07 -331.5)"/>
    <path class="cls-2" d="M266.93,551.37q-7.14,0-11.12-3.42t-4-9.48q0-6.26,4-9.59t11.12-3.32q15.1,0,15.1,12.91T266.93,551.37Zm0,116.55q-6.12,0-9.39-3.52t-3.26-9.78V582.85q0-13.29,12.65-13.29,12.85,0,12.86,13.29v71.77q0,6.25-3.27,9.78T266.93,667.92Z" transform="translate(-16.07 -331.5)"/>
    <path class="cls-2" d="M335.29,668.11q-12.65,0-12.65-12.51V581.68q0-12.31,12.45-12.32t12.45,12.32v4.11a33.35,33.35,0,0,1,13.77-12.52A43.4,43.4,0,0,1,380.8,569q35.31,0,35.31,39.3V655.6q0,12.51-12.66,12.51-12.85,0-12.85-12.51V609.45q0-11.15-4.39-16.23t-13.57-5.09q-11.24,0-17.86,6.75t-6.63,17.89V655.6Q348.15,668.11,335.29,668.11Z" transform="translate(-16.07 -331.5)"/>
    <path class="cls-2" d="M471,551.37q-7.14,0-11.12-3.42t-4-9.48q0-6.26,4-9.59T471,525.56q15.09,0,15.1,12.91T471,551.37Zm0,116.55q-6.12,0-9.39-3.52t-3.26-9.78V582.85q0-13.29,12.65-13.29,12.86,0,12.86,13.29v71.77c0,4.17-1.1,7.43-3.27,9.78S475.21,667.92,471,667.92Z" transform="translate(-16.07 -331.5)"/>
    <path class="cls-2" d="M539.36,668.11q-12.66,0-12.65-12.51V539.44q0-12.32,12.65-12.32,12.85,0,12.86,12.32V611.6h.41l33.67-34a65.19,65.19,0,0,1,7.14-6.06q3.06-2.14,8.37-2.15t8.06,2.64a8.51,8.51,0,0,1,2.75,6.36q0,3.71-3.67,7.43l-30.61,30.89,34.08,35.2q3.68,3.72,3.36,7.53a8.59,8.59,0,0,1-3.36,6.26,12.1,12.1,0,0,1-7.76,2.44c-3.81,0-6.83-.72-9.08-2.15a41.53,41.53,0,0,1-7.45-6.45l-35.5-35.59h-.41V655.6Q552.22,668.11,539.36,668.11Z" transform="translate(-16.07 -331.5)"/>
    <path class="cls-2" d="M665.07,551.37c-4.77,0-8.47-1.14-11.13-3.42s-4-5.44-4-9.48,1.33-7.37,4-9.59,6.36-3.32,11.13-3.32q15.09,0,15.1,12.91T665.07,551.37Zm0,116.55c-4.08,0-7.22-1.18-9.39-3.52s-3.27-5.61-3.27-9.78V582.85q0-13.29,12.66-13.29,12.85,0,12.85,13.29v71.77q0,6.25-3.26,9.78T665.07,667.92Z" transform="translate(-16.07 -331.5)"/>
  </g>
</svg>
