<svg id="Layer_1" data-name="Layer 1" xmlns="http://www.w3.org/2000/svg" viewBox="0 0 963.1 383.91">
  <defs>
    <style>
      .cls-1 {
        fill: #fff;
      }

      .cls-2 {
        fill: #ed2024;
      }
    </style>
  </defs>
  <g>
    <rect class="cls-1" x="0.69" y="245.85" width="517.65" height="138.07" rx="31.01"/>
    <g>
      <path class="cls-1" d="M30,458.37q-11.55,0-11.55-12.78V322.89q0-6.39,3-9.79a9.88,9.88,0,0,1,7.8-3.41q4.43,0,6.63,1.76a32.22,32.22,0,0,1,5.29,5.87l68.69,95.48V322.27q0-12.57,11.54-12.58,11.35,0,11.35,12.58V446c0,3.85-.9,6.88-2.69,9.07a8.94,8.94,0,0,1-7.31,3.3,11.9,11.9,0,0,1-7-1.85,27.58,27.58,0,0,1-5.68-6L41.35,354.85v90.74Q41.35,458.37,30,458.37Z" transform="translate(-18.45 -308.04)"/>
      <path class="cls-1" d="M195.45,495.49q-6.54,0-9-5.16t.19-11.75l11-26-32.9-81.25q-2.7-6.81,0-12c1.79-3.43,5.32-5.16,10.58-5.16a11.06,11.06,0,0,1,7.12,2.17q2.69,2.16,4.81,8.15l23.08,61.86,23.67-62.07q2.12-5.77,5-7.94a12.53,12.53,0,0,1,7.69-2.17c4.11,0,7,1.73,8.66,5.16s1.61,7.36-.19,11.75L208.34,485.59q-2.51,5.78-5.39,7.84A12.63,12.63,0,0,1,195.45,495.49Z" transform="translate(-18.45 -308.04)"/>
      <path class="cls-1" d="M318.38,458.78q-34.62,0-34.63-41.65v-49.9q0-13,11.93-13,12.12,0,12.12,13v50.31q0,10.72,4,15.88t12.89,5.16a20,20,0,0,0,15.78-7.12q6.15-7.11,6.15-18.87V367.23q0-13,11.93-13,12.12,0,12.12,13v77.94q0,13.2-11.73,13.2t-11.74-13.2v-3.5Q337.82,458.79,318.38,458.78Z" transform="translate(-18.45 -308.04)"/>
      <path class="cls-1" d="M419.58,458.37q-11.93,0-11.93-13.2V367.23q0-13,11.74-13t11.73,13v4.12a31.43,31.43,0,0,1,29.05-17.53q21.16,0,27.71,19.8a33.95,33.95,0,0,1,31.55-19.8q31.74,0,31.74,41.45v49.9q0,13.2-12.12,13.2-11.92,0-11.92-13.2V396.3q0-11.54-3.56-16.91c-2.38-3.57-6.38-5.36-12-5.36q-9.42,0-14.81,7.12t-5.39,19.69v44.33q0,13.2-11.93,13.2-12.12,0-12.12-13.2V396.3q0-11.54-3.56-16.91T451.9,374q-9.43,0-14.81,7.12t-5.39,19.69v44.33Q431.7,458.37,419.58,458.37Z" transform="translate(-18.45 -308.04)"/>
      <path class="cls-1" d="M641.79,458.78a35.21,35.21,0,0,1-18.47-4.84,30.79,30.79,0,0,1-12.12-13.1v4.33q0,13.2-11.74,13.2-11.93,0-11.92-13.2V322.68q0-13,11.92-13,12.12,0,12.13,13v48.05a32,32,0,0,1,12.21-12.27,35.17,35.17,0,0,1,18-4.64,37.26,37.26,0,0,1,21.74,6.4,42.12,42.12,0,0,1,14.43,18q5.19,11.65,5.19,27.94,0,16.08-5.19,27.94t-14.52,18.25A37.41,37.41,0,0,1,641.79,458.78Zm-6.73-19.59a20.89,20.89,0,0,0,17.31-8.35q6.54-8.34,6.54-24.64,0-16.5-6.54-24.64a22.47,22.47,0,0,0-34.63,0q-6.54,8.15-6.54,24.64,0,16.29,6.54,24.64A20.9,20.9,0,0,0,635.06,439.19Z" transform="translate(-18.45 -308.04)"/>
      <path class="cls-1" d="M745.49,458.78a38.4,38.4,0,0,1-18.19-4.22,32.12,32.12,0,0,1-12.5-11.45,30,30,0,0,1-4.52-16.29q0-11.13,5.39-17.63t17.5-9.38q12.12-2.9,32.52-2.89h6.73v-4.33q0-10.3-4.23-14.85T754,373.21a55.24,55.24,0,0,0-12,1.44,61,61,0,0,0-13.57,5q-4.62,2.26-7.69.52a8.76,8.76,0,0,1-4.14-5.57,12.27,12.27,0,0,1,.39-7.74,9.93,9.93,0,0,1,5.86-5.77,82.75,82.75,0,0,1,17-5.57,75.91,75.91,0,0,1,14.91-1.65q20.58,0,30.59,10.21t10,31.65v49.49q0,13.2-11.16,13.2-11.35,0-11.35-13.2v-4.53a27.83,27.83,0,0,1-10.39,13.3A29.37,29.37,0,0,1,745.49,458.78Zm5-17.73a20.15,20.15,0,0,0,15.68-7q6.26-7,6.25-17.73v-4.54h-6.54q-18.09,0-25.11,3t-7,10.82a14.88,14.88,0,0,0,4.43,11.14Q742.59,441.06,750.49,441.05Z" transform="translate(-18.45 -308.04)"/>
      <path class="cls-1" d="M843.22,458.37q-11.93,0-11.93-13.2V367.23q0-13,11.74-13t11.73,13v4.33a33,33,0,0,1,13-13.2,37.25,37.25,0,0,1,18.37-4.54q33.28,0,33.29,41.45v49.9q0,13.2-11.93,13.2-12.12,0-12.12-13.2V396.51q0-11.76-4.14-17.12T878.43,374q-10.59,0-16.84,7.12T855.34,400v45.16Q855.34,458.37,843.22,458.37Z" transform="translate(-18.45 -308.04)"/>
      <path class="cls-1" d="M967.31,335.26q-6.73,0-10.49-3.61t-3.75-10q0-6.58,3.75-10.1T967.31,308q14.24,0,14.24,13.61T967.31,335.26Zm0,122.91q-5.77,0-8.85-3.72t-3.08-10.31V368.46q0-14,11.93-14,12.12,0,12.12,14v75.68q0,6.62-3.08,10.31T967.31,458.17Z" transform="translate(-18.45 -308.04)"/>
    </g>
    <g>
      <path class="cls-2" d="M89.27,660.64q-7.38,0-7.38-7.29V588.21q0-7.17,7.38-7.17t7.37,7.17v28.16h.23l33.07-31.8a14.4,14.4,0,0,1,3.69-2.65,9.42,9.42,0,0,1,4.14-.88c2.23,0,3.82.55,4.79,1.65a4.74,4.74,0,0,1,1.15,3.87,6.84,6.84,0,0,1-2.25,4.08l-30.3,28.71,31.91,31a6.78,6.78,0,0,1,2.54,4.64,5,5,0,0,1-1.56,4,6.82,6.82,0,0,1-4.89,1.6,7.89,7.89,0,0,1-4.44-1.11,28.4,28.4,0,0,1-3.86-3.2l-34-32.57h-.23v29.59Q96.64,660.64,89.27,660.64Z" transform="translate(-18.45 -308.04)"/>
      <path class="cls-2" d="M188.47,660.86q-19.25,0-19.24-20.65V588q0-7,7.14-7t7.26,7v51.56q0,9.94,8.64,9.94c.61,0,1.19,0,1.73-.06s1.07-.09,1.61-.16a1.94,1.94,0,0,1,2.19.82,10.27,10.27,0,0,1,.58,4.25,7.06,7.06,0,0,1-1.16,4.31,5.28,5.28,0,0,1-3.8,1.88A36.53,36.53,0,0,1,188.47,660.86Z" transform="translate(-18.45 -308.04)"/>
      <path class="cls-2" d="M222.34,594.73a9.33,9.33,0,0,1-6.28-1.94,7.56,7.56,0,0,1,0-10.76,9.53,9.53,0,0,1,6.28-1.88q8.52,0,8.53,7.29T222.34,594.73Zm0,65.8a6.9,6.9,0,0,1-5.3-2A7.78,7.78,0,0,1,215.2,653V612.5q0-7.5,7.14-7.51t7.26,7.51V653a7.83,7.83,0,0,1-1.84,5.52A7.06,7.06,0,0,1,222.34,660.53Z" transform="translate(-18.45 -308.04)"/>
      <path class="cls-2" d="M260.94,660.64q-7.15,0-7.15-7.07V611.84q0-7,7-7t7,7v2.32a18.83,18.83,0,0,1,7.78-7.07,24.39,24.39,0,0,1,11-2.43q19.94,0,19.93,22.19v26.72q0,7.06-7.14,7.07t-7.26-7.07V627.52c0-4.2-.82-7.25-2.47-9.17s-4.21-2.87-7.67-2.87q-6.33,0-10.08,3.81a13.77,13.77,0,0,0-3.74,10.1v24.18Q268.2,660.64,260.94,660.64Z" transform="translate(-18.45 -308.04)"/>
      <path class="cls-2" d="M337.56,594.73a9.33,9.33,0,0,1-6.28-1.94,7.56,7.56,0,0,1,0-10.76,9.53,9.53,0,0,1,6.28-1.88q8.52,0,8.52,7.29T337.56,594.73Zm0,65.8a6.88,6.88,0,0,1-5.3-2,7.79,7.79,0,0,1-1.85-5.52V612.5q0-7.5,7.15-7.51t7.26,7.51V653a7.79,7.79,0,0,1-1.85,5.52A7,7,0,0,1,337.56,660.53Z" transform="translate(-18.45 -308.04)"/>
      <path class="cls-2" d="M376.15,660.64q-7.14,0-7.14-7.07V588q0-7,7.14-7t7.26,7v40.74h.23l19-19.21a36.75,36.75,0,0,1,4-3.42,8.06,8.06,0,0,1,4.72-1.22,6.33,6.33,0,0,1,4.55,1.49,4.81,4.81,0,0,1,1.56,3.59,6.06,6.06,0,0,1-2.08,4.2L398.16,631.6l19.24,19.87a5.42,5.42,0,0,1,1.9,4.26,4.81,4.81,0,0,1-1.9,3.53,6.79,6.79,0,0,1-4.38,1.38,9.39,9.39,0,0,1-5.12-1.22,23.52,23.52,0,0,1-4.21-3.64l-20.05-20.09h-.23v17.88Q383.41,660.64,376.15,660.64Z" transform="translate(-18.45 -308.04)"/>
      <path class="cls-2" d="M447.13,594.73a9.33,9.33,0,0,1-6.28-1.94,7.56,7.56,0,0,1,0-10.76,9.53,9.53,0,0,1,6.28-1.88q8.52,0,8.52,7.29T447.13,594.73Zm0,65.8a6.88,6.88,0,0,1-5.3-2A7.79,7.79,0,0,1,440,653V612.5q0-7.5,7.15-7.51t7.26,7.51V653a7.79,7.79,0,0,1-1.85,5.52A7,7,0,0,1,447.13,660.53Z" transform="translate(-18.45 -308.04)"/>
    </g>
  </g>
</svg>
